<svg id="bba456f2-48df-4ee2-b745-15737ca2f8d6" data-name="Capa 1" xmlns="http://www.w3.org/2000/svg" xmlns:xlink="http://www.w3.org/1999/xlink" width="390.84mm" height="475.68mm" viewBox="0 0 1107.9 1348.38">
  <defs>
    <linearGradient id="b07840f5-1f60-49f0-ae19-723748c4eb5e" data-name="Degradado sin nombre 352" y1="1002.28" x2="1107.9" y2="1002.28" gradientUnits="userSpaceOnUse">
      <stop offset="0" stop-color="#1d24a8"/>
      <stop offset="0.56" stop-color="#0258d1"/>
      <stop offset="1" stop-color="#0065de"/>
    </linearGradient>
    <linearGradient id="a34e8425-c151-4353-b924-58ceba0dfe34" data-name="Degradado sin nombre 345" y1="985.78" x2="1107.9" y2="985.78" gradientUnits="userSpaceOnUse">
      <stop offset="0" stop-color="#6c28d7"/>
      <stop offset="0.56" stop-color="#2a71d9"/>
      <stop offset="1" stop-color="#01a4dd"/>
    </linearGradient>
    <linearGradient id="b10b1e90-ae90-4bdb-80f4-cf33c482b9af" y1="861.12" x2="1107.9" y2="861.12" xlink:href="#b07840f5-1f60-49f0-ae19-723748c4eb5e"/>
    <linearGradient id="b17398c2-e415-420b-8c70-fc829b2c0a35" y1="844.62" x2="1107.9" y2="844.62" xlink:href="#a34e8425-c151-4353-b924-58ceba0dfe34"/>
    <linearGradient id="b09c6fec-a237-467f-a235-4872e435dd39" data-name="Degradado sin nombre 73" x1="924.46" y1="814.99" x2="786.04" y2="814.99" gradientUnits="userSpaceOnUse">
      <stop offset="0.45" stop-color="#f2965a"/>
      <stop offset="1" stop-color="#eb6862"/>
    </linearGradient>
    <linearGradient id="bad23c25-706c-4b0e-a44a-2a443e76ef0a" data-name="Degradado sin nombre 71" x1="787.71" y1="808.22" x2="922.71" y2="808.22" gradientUnits="userSpaceOnUse">
      <stop offset="0" stop-color="#f9b555"/>
      <stop offset="0.5" stop-color="#ffd04f"/>
      <stop offset="1" stop-color="#f9b555"/>
    </linearGradient>
    <linearGradient id="b50c5d32-63af-4df6-8fa0-bb7c5b34ef95" x1="787.71" y1="791.32" x2="922.71" y2="791.32" xlink:href="#b09c6fec-a237-467f-a235-4872e435dd39"/>
    <linearGradient id="a4e0c344-828e-4554-a8aa-2d1a8d08e87e" x1="930.46" y1="794.09" x2="792.04" y2="794.09" xlink:href="#b09c6fec-a237-467f-a235-4872e435dd39"/>
    <linearGradient id="ad133b15-cb0b-465e-b104-8767f388d0e3" x1="793.71" y1="787.32" x2="928.71" y2="787.32" xlink:href="#bad23c25-706c-4b0e-a44a-2a443e76ef0a"/>
    <linearGradient id="a1153e4d-33c7-429a-b3f4-3edc3663b690" x1="793.71" y1="770.42" x2="928.71" y2="770.42" xlink:href="#b09c6fec-a237-467f-a235-4872e435dd39"/>
    <linearGradient id="a6628e23-f1d8-49f5-8fa7-12b306c46fc8" x1="925.68" y1="776.22" x2="787.26" y2="776.22" xlink:href="#b09c6fec-a237-467f-a235-4872e435dd39"/>
    <linearGradient id="e08c6333-9d65-4bb5-8d3b-079a02eec5f5" x1="788.93" y1="769.45" x2="923.93" y2="769.45" xlink:href="#bad23c25-706c-4b0e-a44a-2a443e76ef0a"/>
    <linearGradient id="a4cff606-8630-4107-ac5e-e9c8f216570e" x1="788.93" y1="752.56" x2="923.93" y2="752.56" xlink:href="#b09c6fec-a237-467f-a235-4872e435dd39"/>
    <linearGradient id="a918a933-0265-461b-b8fd-bb0a7da2fd6f" x1="932.46" y1="758.93" x2="794.04" y2="758.93" xlink:href="#b09c6fec-a237-467f-a235-4872e435dd39"/>
    <linearGradient id="a93bf1cc-a090-439b-9c00-3e99db2d5786" x1="795.71" y1="752.16" x2="930.71" y2="752.16" xlink:href="#bad23c25-706c-4b0e-a44a-2a443e76ef0a"/>
    <linearGradient id="abb57439-7c5a-4415-944e-b84ed3b79c7d" x1="795.71" y1="735.26" x2="930.71" y2="735.26" xlink:href="#b09c6fec-a237-467f-a235-4872e435dd39"/>
    <linearGradient id="b8f3cf18-661e-4392-9cc5-9007bc085f77" x1="929.11" y1="734.02" x2="790.69" y2="734.02" xlink:href="#b09c6fec-a237-467f-a235-4872e435dd39"/>
    <linearGradient id="e4f40f45-6a88-4468-81d9-440f9cd36906" x1="792.36" y1="727.25" x2="927.36" y2="727.25" xlink:href="#bad23c25-706c-4b0e-a44a-2a443e76ef0a"/>
    <linearGradient id="fab57615-6079-4a35-abff-810b4f89f2ae" x1="792.36" y1="710.35" x2="927.36" y2="710.35" xlink:href="#b09c6fec-a237-467f-a235-4872e435dd39"/>
    <linearGradient id="eae4d506-613a-45f4-915c-6338b71c6c72" data-name="Degradado sin nombre 367" x1="435.53" y1="130.86" x2="864.14" y2="130.86" gradientUnits="userSpaceOnUse">
      <stop offset="0" stop-color="#9b24f3"/>
      <stop offset="1" stop-color="#461bcb"/>
    </linearGradient>
    <linearGradient id="bee3ed2f-5b2e-40c2-b38d-af579e2c8ab6" data-name="Degradado sin nombre 363" x1="774.02" y1="221.56" x2="521.83" y2="731.66" gradientUnits="userSpaceOnUse">
      <stop offset="0" stop-color="#018bdd"/>
      <stop offset="1" stop-color="#0054b1"/>
    </linearGradient>
    <linearGradient id="a72fe3f7-3163-45ef-b74b-50c8d3d5359f" x1="861.64" y1="255.82" x2="861.64" y2="934.52" xlink:href="#eae4d506-613a-45f4-915c-6338b71c6c72"/>
    <linearGradient id="fa8a7d9c-d975-4fdf-a1f6-1519401f537d" x1="419.56" y1="779.64" x2="281.14" y2="779.64" xlink:href="#b09c6fec-a237-467f-a235-4872e435dd39"/>
    <linearGradient id="e12b5e1e-2aa8-4831-a545-2dc3081aa61e" x1="282.81" y1="772.87" x2="417.81" y2="772.87" xlink:href="#bad23c25-706c-4b0e-a44a-2a443e76ef0a"/>
    <linearGradient id="bd8883ce-a9df-4740-ab65-9c02ea75ddb6" x1="282.81" y1="755.97" x2="417.81" y2="755.97" xlink:href="#b09c6fec-a237-467f-a235-4872e435dd39"/>
    <linearGradient id="a67aed45-fde8-4f05-89ce-131c30457ab5" x1="425.56" y1="758.73" x2="287.14" y2="758.73" xlink:href="#b09c6fec-a237-467f-a235-4872e435dd39"/>
    <linearGradient id="b9d79bb4-3ab6-440c-84d7-f92b81131633" x1="288.81" y1="751.96" x2="423.81" y2="751.96" xlink:href="#bad23c25-706c-4b0e-a44a-2a443e76ef0a"/>
    <linearGradient id="ef99723e-3a51-4341-93d6-87dd13c32b25" x1="288.81" y1="735.07" x2="423.81" y2="735.07" xlink:href="#b09c6fec-a237-467f-a235-4872e435dd39"/>
    <linearGradient id="a61096f1-d27f-41d4-acec-ad671294f405" x1="420.79" y1="740.87" x2="282.36" y2="740.87" xlink:href="#b09c6fec-a237-467f-a235-4872e435dd39"/>
    <linearGradient id="a7f5df53-f946-4561-96c4-97f7c52d3de2" x1="284.04" y1="734.1" x2="419.04" y2="734.1" xlink:href="#bad23c25-706c-4b0e-a44a-2a443e76ef0a"/>
    <linearGradient id="fd7926ae-d386-4f1f-965f-d4be1f4a92d5" x1="284.04" y1="717.2" x2="419.04" y2="717.2" xlink:href="#b09c6fec-a237-467f-a235-4872e435dd39"/>
    <linearGradient id="b84e37a0-66ad-4913-a1ec-e5c23cecc122" x1="427.56" y1="723.57" x2="289.14" y2="723.57" xlink:href="#b09c6fec-a237-467f-a235-4872e435dd39"/>
    <linearGradient id="bccc4af6-5c8d-46e7-b2d2-f7b2b38ff251" x1="290.81" y1="716.8" x2="425.81" y2="716.8" xlink:href="#bad23c25-706c-4b0e-a44a-2a443e76ef0a"/>
    <linearGradient id="aea3c144-b708-4818-9cb5-e023a0248efb" x1="290.81" y1="699.91" x2="425.81" y2="699.91" xlink:href="#b09c6fec-a237-467f-a235-4872e435dd39"/>
    <linearGradient id="b1169cbb-ee94-44e7-8ccc-4f4a9d52aaf2" x1="424.22" y1="698.66" x2="285.79" y2="698.66" xlink:href="#b09c6fec-a237-467f-a235-4872e435dd39"/>
    <linearGradient id="a9046ead-9bd8-4a24-93c1-d87b12850031" x1="287.47" y1="691.89" x2="422.46" y2="691.89" xlink:href="#bad23c25-706c-4b0e-a44a-2a443e76ef0a"/>
    <linearGradient id="f8b4f2ce-a8f1-4134-be67-54a14ef8241c" x1="287.47" y1="675" x2="422.46" y2="675" xlink:href="#b09c6fec-a237-467f-a235-4872e435dd39"/>
    <radialGradient id="f9d62029-4a76-4355-aaaa-3b489c35093d" data-name="Degradado sin nombre 228" cx="486.99" cy="732.22" fx="495.0595179965873" fy="742.7620280260201" r="15.81" gradientTransform="translate(-163.93 -17.28) rotate(-11.6) scale(1 1.18)" gradientUnits="userSpaceOnUse">
      <stop offset="0" stop-color="#ffd04f"/>
      <stop offset="1" stop-color="#fddf46"/>
    </radialGradient>
    <radialGradient id="f813213e-6e2b-4d0a-a83d-3ec9fbd37f9c" data-name="Degradado sin nombre 219" cx="471.7" cy="712.2" fx="484.3996488483628" fy="728.7765943867603" r="24.87" gradientTransform="translate(-159.49 -17.21) rotate(-11.6) scale(1 1.18)" gradientUnits="userSpaceOnUse">
      <stop offset="0" stop-color="#f2965a"/>
      <stop offset="0.89" stop-color="#eb6862"/>
    </radialGradient>
    <linearGradient id="f6c7ce7c-c778-4381-8e30-2460e9ceee4a" data-name="Nueva muestra de degradado 1" x1="419.88" y1="744.4" x2="411.79" y2="917.98" gradientUnits="userSpaceOnUse">
      <stop offset="0" stop-color="#0065de"/>
      <stop offset="1" stop-color="#1d24a8"/>
    </linearGradient>
    <linearGradient id="f636454f-cadf-4cf9-85f6-9b25d9206411" data-name="Degradado sin nombre 382" x1="332.11" y1="760.24" x2="420.7" y2="848.84" gradientUnits="userSpaceOnUse">
      <stop offset="0" stop-color="#461bcb"/>
      <stop offset="0.6" stop-color="#5f1ed5"/>
      <stop offset="1" stop-color="#7922e3"/>
    </linearGradient>
    <linearGradient id="e0a596f8-e559-4625-b824-09b0f91fab46" data-name="Degradado sin nombre 389" x1="399.23" y1="793.13" x2="334.65" y2="821.42" gradientUnits="userSpaceOnUse">
      <stop offset="0" stop-color="#9b24f3"/>
      <stop offset="0.24" stop-color="#9624f1"/>
      <stop offset="0.52" stop-color="#8822ea"/>
      <stop offset="0.82" stop-color="#7120de"/>
      <stop offset="1" stop-color="#5f1ed5"/>
    </linearGradient>
    <linearGradient id="a9a5be90-3174-497d-bfe7-c8a80810b15f" data-name="Degradado sin nombre 214" x1="376.67" y1="762.83" x2="376.11" y2="772.22" gradientUnits="userSpaceOnUse">
      <stop offset="0" stop-color="#4880a4"/>
      <stop offset="1" stop-color="#1955a1"/>
    </linearGradient>
    <linearGradient id="a573c55b-4449-475a-8ba0-446768812299" data-name="Degradado sin nombre 83" x1="417.33" y1="587.87" x2="417.33" y2="754.26" gradientUnits="userSpaceOnUse">
      <stop offset="0" stop-color="#eb6862"/>
      <stop offset="1" stop-color="#f2965a"/>
    </linearGradient>
    <linearGradient id="a5d6af26-a9d3-4b70-b4ec-fc3c09b2c346" data-name="Degradado sin nombre 105" x1="398.43" y1="601.65" x2="407.92" y2="754.86" gradientUnits="userSpaceOnUse">
      <stop offset="0" stop-color="#f0895a"/>
      <stop offset="1" stop-color="#f9b555"/>
    </linearGradient>
    <linearGradient id="a53abeb7-eea1-432e-97d8-266472feceb9" data-name="Degradado sin nombre 114" x1="416.23" y1="595.94" x2="431.3" y2="656.78" gradientUnits="userSpaceOnUse">
      <stop offset="0" stop-color="#ffd04f"/>
      <stop offset="0.62" stop-color="#f9b555"/>
      <stop offset="1" stop-color="#f5a558"/>
    </linearGradient>
    <linearGradient id="b62e69c5-af4e-4e7c-b396-32ae047c9e9f" data-name="Degradado sin nombre 121" x1="419.8" y1="602.25" x2="428.98" y2="654" gradientUnits="userSpaceOnUse">
      <stop offset="0" stop-color="#2d4b99"/>
      <stop offset="1" stop-color="#233a88"/>
    </linearGradient>
    <radialGradient id="edf7f330-bea8-4ee2-beef-810478198002" data-name="Degradado sin nombre 174" cx="417.23" cy="602.88" r="19.82" xlink:href="#b62e69c5-af4e-4e7c-b396-32ae047c9e9f"/>
    <linearGradient id="bc435bb7-34b3-4ee3-8c74-aa34081c5189" data-name="Degradado sin nombre 101" x1="415.96" y1="606.64" x2="411.77" y2="585.43" gradientUnits="userSpaceOnUse">
      <stop offset="0" stop-color="#fddf46"/>
      <stop offset="0.29" stop-color="#fcd948"/>
      <stop offset="0.7" stop-color="#fbc74f"/>
      <stop offset="1" stop-color="#f9b555"/>
    </linearGradient>
    <linearGradient id="fb776b07-3102-40c0-951c-ebee0f109973" data-name="Degradado sin nombre 98" x1="430.51" y1="540.07" x2="393.4" y2="589.18" gradientUnits="userSpaceOnUse">
      <stop offset="0" stop-color="#fddf46"/>
      <stop offset="0.54" stop-color="#fddd47"/>
      <stop offset="0.73" stop-color="#fcd649"/>
      <stop offset="0.87" stop-color="#fbcb4d"/>
      <stop offset="0.98" stop-color="#f9ba53"/>
      <stop offset="1" stop-color="#f9b555"/>
    </linearGradient>
    <linearGradient id="ad560047-f22e-4a2a-bf32-30cbc3d920fb" data-name="Degradado sin nombre 92" x1="413.23" y1="524.56" x2="413.23" y2="576.76" gradientUnits="userSpaceOnUse">
      <stop offset="0" stop-color="#3457a3"/>
      <stop offset="1" stop-color="#2a4796"/>
    </linearGradient>
    <radialGradient id="ef2cc30d-eab5-4b74-93a3-c3497d05ff0e" data-name="Degradado sin nombre 178" cx="376.04" cy="754.98" fy="746.0284613514318" r="12.08" gradientUnits="userSpaceOnUse">
      <stop offset="0" stop-color="#fddf46"/>
      <stop offset="0.43" stop-color="#fddd47"/>
      <stop offset="0.66" stop-color="#fcd54a"/>
      <stop offset="0.85" stop-color="#fbc74f"/>
      <stop offset="1" stop-color="#f9b555"/>
    </radialGradient>
    <linearGradient id="af6067be-7cbe-45bd-bd87-e41da60d155e" x1="373.54" y1="616.93" x2="372.42" y2="745.02" xlink:href="#a573c55b-4449-475a-8ba0-446768812299"/>
    <radialGradient id="afd1a15f-5f7f-4b8b-9855-80336369333d" cx="566.51" cy="608.56" fy="608.5590263877903" r="48.17" xlink:href="#ef2cc30d-eab5-4b74-93a3-c3497d05ff0e"/>
    <linearGradient id="a5fbaa47-92d1-48c9-bb8e-9e6781a62fb7" x1="578.2" y1="584.05" x2="604.43" y2="644.61" xlink:href="#ad560047-f22e-4a2a-bf32-30cbc3d920fb"/>
    <linearGradient id="a4a38662-12d1-41ae-a85e-49bcb40a14b4" x1="568.8" y1="653.91" x2="604.84" y2="653.91" xlink:href="#b62e69c5-af4e-4e7c-b396-32ae047c9e9f"/>
    <linearGradient id="e362f1e4-6afc-4b93-8e2f-719815f9f6df" x1="574.23" y1="801.12" x2="574.23" y2="1005.75" xlink:href="#f6c7ce7c-c778-4381-8e30-2460e9ceee4a"/>
    <linearGradient id="ece3079e-925b-4e6f-a2e4-302034453ac5" x1="622.6" y1="653.77" x2="622.6" y2="774.48" xlink:href="#a573c55b-4449-475a-8ba0-446768812299"/>
    <linearGradient id="ab37e684-96c4-4deb-a389-e0ad13593e1e" data-name="Degradado sin nombre 79" x1="585.3" y1="653.77" x2="585.3" y2="813.4" gradientUnits="userSpaceOnUse">
      <stop offset="0" stop-color="#f2965a"/>
      <stop offset="1" stop-color="#f9b555"/>
    </linearGradient>
    <linearGradient id="bc620afc-4512-4ed0-8479-6ed00337c4f4" x1="556.65" y1="672.01" x2="514.79" y2="760.19" xlink:href="#a573c55b-4449-475a-8ba0-446768812299"/>
    <linearGradient id="ab0b8a0e-7280-40a7-b7d3-aea5ffd5248c" data-name="Degradado sin nombre 40" x1="817.39" y1="84.64" x2="763.44" y2="260.64" gradientTransform="translate(-162.54 686.83) rotate(-30.24)" gradientUnits="userSpaceOnUse">
      <stop offset="0" stop-color="#ffd04f"/>
      <stop offset="1" stop-color="#eb6862"/>
    </linearGradient>
    <linearGradient id="a1e4b0ba-ea8c-4bd3-b0aa-11200218daf1" data-name="Degradado sin nombre 29" x1="781.19" y1="86.89" x2="798.93" y2="69.15" gradientTransform="translate(-231.55 277.86)" gradientUnits="userSpaceOnUse">
      <stop offset="0" stop-color="#eb6862"/>
      <stop offset="1" stop-color="#ee7a5f"/>
    </linearGradient>
    <linearGradient id="a0237ade-fe67-4c48-9805-9a1e85c32f20" data-name="Degradado sin nombre 11" x1="770.39" y1="55.25" x2="808.77" y2="28.38" gradientTransform="translate(-162.54 686.83) rotate(-30.24)" xlink:href="#a5d6af26-a9d3-4b70-b4ec-fc3c09b2c346"/>
    <linearGradient id="b1e1b782-9cde-42ae-ac0c-ce1e10f34d4e" data-name="Degradado sin nombre 46" x1="791.29" y1="-312.84" x2="791.29" y2="11.6" gradientTransform="translate(-162.54 686.83) rotate(-30.24)" gradientUnits="userSpaceOnUse">
      <stop offset="0" stop-color="#f2965a"/>
      <stop offset="0.28" stop-color="#f0895a"/>
      <stop offset="1" stop-color="#eb6862"/>
    </linearGradient>
    <linearGradient id="a07a4065-a50b-40a6-b8ac-9ccd5e070f62" x1="738.7" y1="-19.54" x2="738.7" y2="-265.14" xlink:href="#b1e1b782-9cde-42ae-ac0c-ce1e10f34d4e"/>
  </defs>
  <title>graphic</title>
  <g>
    <g style="opacity: 0.2">
      <path d="M0,993.22a26.81,26.81,0,0,0,15.07,24.47l553.67,319.53s22.33,11.16,40.47,11.16,39.07-11.44,39.07-11.44l445.39-257s14.23-7.12,14.23-21.49v-33c0-17.86-14.3-24.09-14.3-24.09L497.71,656.18,14.51,937.52S0,945.62,0,960.22" style="fill: url(#b07840f5-1f60-49f0-ae19-723748c4eb5e)"/>
      <path d="M1093.6,1001.34s14.3,6.23,14.3,24.09c0,14.37-14.23,21.49-14.23,21.49l-445.39,257s-20.93,11.44-39.07,11.44-40.47-11.16-40.47-11.16L15.07,984.69A26.81,26.81,0,0,1,0,960.22c0-14.6,14.51-22.7,14.51-22.7l483.2-281.34Z" style="fill: url(#a34e8425-c151-4353-b924-58ceba0dfe34)"/>
    </g>
    <g>
      <g>
        <path d="M0,852.05a26.79,26.79,0,0,0,15.07,24.47l553.67,319.54s22.33,11.16,40.47,11.16,39.07-11.44,39.07-11.44l445.39-257s14.23-7.12,14.23-21.49v-33c0-17.86-14.3-24.09-14.3-24.09L497.71,515,14.51,796.36S0,804.45,0,819.05" style="fill: url(#b10b1e90-ae90-4bdb-80f4-cf33c482b9af)"/>
        <path d="M1093.6,860.18s14.3,6.23,14.3,24.09c0,14.37-14.23,21.49-14.23,21.49l-445.39,257s-20.93,11.44-39.07,11.44-40.47-11.16-40.47-11.16L15.07,843.52A26.79,26.79,0,0,1,0,819.05c0-14.6,14.51-22.69,14.51-22.69L497.71,515Z" style="fill: url(#b17398c2-e415-420b-8c70-fc829b2c0a35)"/>
      </g>
      <g>
        <g>
          <path d="M781.71,808.49c0-22.8,32.91-41.29,73.5-41.29s73.5,18.49,73.5,41.29v13c0,22.81-32.91,41.3-73.5,41.3s-73.5-18.49-73.5-41.3Z" style="fill: url(#b09c6fec-a237-467f-a235-4872e435dd39)"/>
          <ellipse cx="855.21" cy="808.22" rx="73.5" ry="41.3" style="fill: #fddf46"/>
          <path d="M855.21,772.93c-36.59,0-67.5,16.16-67.5,35.29s30.91,35.3,67.5,35.3,67.5-16.17,67.5-35.3S891.8,772.93,855.21,772.93Z" style="fill: url(#bad23c25-706c-4b0e-a44a-2a443e76ef0a)"/>
          <path d="M855.21,775.93c35.63,0,65.86,15.32,67.42,33.79,0-.5.08-1,.08-1.5,0-19.13-30.91-35.29-67.5-35.29s-67.5,16.16-67.5,35.29c0,.5,0,1,.08,1.5C789.35,791.25,819.58,775.93,855.21,775.93Z" style="fill: url(#b50c5d32-63af-4df6-8fa0-bb7c5b34ef95)"/>
        </g>
        <g>
          <path d="M787.71,787.59c0-22.81,32.91-41.3,73.5-41.3s73.5,18.49,73.5,41.3v13c0,22.8-32.91,41.29-73.5,41.29s-73.5-18.49-73.5-41.29Z" style="fill: url(#a4e0c344-828e-4554-a8aa-2d1a8d08e87e)"/>
          <ellipse cx="861.21" cy="787.32" rx="73.5" ry="41.3" style="fill: #fddf46"/>
          <path d="M861.21,752c-36.59,0-67.5,16.16-67.5,35.3s30.91,35.29,67.5,35.29,67.5-16.16,67.5-35.29S897.8,752,861.21,752Z" style="fill: url(#ad133b15-cb0b-465e-b104-8767f388d0e3)"/>
          <path d="M861.21,755c35.63,0,65.86,15.33,67.42,33.8,0-.5.08-1,.08-1.5,0-19.14-30.91-35.3-67.5-35.3s-67.5,16.16-67.5,35.3c0,.5,0,1,.07,1.5C795.35,770.35,825.58,755,861.21,755Z" style="fill: url(#a1153e4d-33c7-429a-b3f4-3edc3663b690)"/>
        </g>
        <g>
          <path d="M782.93,769.72c0-22.8,32.91-41.29,73.5-41.29s73.5,18.49,73.5,41.29v13c0,22.81-32.91,41.3-73.5,41.3s-73.5-18.49-73.5-41.3Z" style="fill: url(#a6628e23-f1d8-49f5-8fa7-12b306c46fc8)"/>
          <ellipse cx="856.43" cy="769.45" rx="73.5" ry="41.3" style="fill: #fddf46"/>
          <path d="M856.43,734.16c-36.59,0-67.5,16.16-67.5,35.29s30.91,35.3,67.5,35.3,67.5-16.16,67.5-35.3S893,734.16,856.43,734.16Z" style="fill: url(#e08c6333-9d65-4bb5-8d3b-079a02eec5f5)"/>
          <path d="M856.43,737.16c35.63,0,65.86,15.32,67.43,33.79,0-.49.07-1,.07-1.5,0-19.13-30.91-35.29-67.5-35.29s-67.5,16.16-67.5,35.29c0,.51,0,1,.08,1.5C790.57,752.48,820.8,737.16,856.43,737.16Z" style="fill: url(#a4cff606-8630-4107-ac5e-e9c8f216570e)"/>
        </g>
        <g>
          <path d="M789.71,752.43c0-22.81,32.91-41.3,73.5-41.3s73.5,18.49,73.5,41.3v13c0,22.8-32.91,41.29-73.5,41.29s-73.5-18.49-73.5-41.29Z" style="fill: url(#a918a933-0265-461b-b8fd-bb0a7da2fd6f)"/>
          <ellipse cx="863.21" cy="752.16" rx="73.5" ry="41.3" style="fill: #fddf46"/>
          <path d="M863.21,716.86c-36.59,0-67.5,16.16-67.5,35.3s30.91,35.29,67.5,35.29,67.5-16.16,67.5-35.29S899.8,716.86,863.21,716.86Z" style="fill: url(#a93bf1cc-a090-439b-9c00-3e99db2d5786)"/>
          <path d="M863.21,719.86c35.63,0,65.86,15.33,67.42,33.8,0-.5.08-1,.08-1.5,0-19.14-30.91-35.3-67.5-35.3s-67.5,16.16-67.5,35.3c0,.5,0,1,.07,1.5C797.35,735.19,827.58,719.86,863.21,719.86Z" style="fill: url(#abb57439-7c5a-4415-944e-b84ed3b79c7d)"/>
        </g>
        <g>
          <path d="M786.36,727.52c0-22.81,32.91-41.3,73.5-41.3s73.5,18.49,73.5,41.3v13c0,22.8-32.91,41.29-73.5,41.29s-73.5-18.49-73.5-41.29Z" style="fill: url(#b8f3cf18-661e-4392-9cc5-9007bc085f77)"/>
          <ellipse cx="859.86" cy="727.25" rx="73.5" ry="41.3" style="fill: #fddf46"/>
          <path d="M859.86,692c-36.59,0-67.5,16.16-67.5,35.3s30.91,35.29,67.5,35.29,67.5-16.16,67.5-35.29S896.45,692,859.86,692Z" style="fill: url(#e4f40f45-6a88-4468-81d9-440f9cd36906)"/>
          <path d="M859.86,695c35.63,0,65.86,15.33,67.42,33.8.05-.5.08-1,.08-1.5,0-19.14-30.91-35.3-67.5-35.3s-67.5,16.16-67.5,35.3c0,.5,0,1,.08,1.5C794,710.28,824.23,695,859.86,695Z" style="fill: url(#fab57615-6079-4a35-abff-810b4f89f2ae)"/>
        </g>
      </g>
      <g>
        <g>
          <g>
            <polygon points="859.14 254.14 435.53 9.57 440.53 7.57 864.14 252.14 859.14 254.14" style="fill: url(#eae4d506-613a-45f4-915c-6338b71c6c72)"/>
            <polygon points="435.53 701.46 859.14 946.03 859.14 254.14 435.53 9.57 435.53 701.46" style="fill: url(#bee3ed2f-5b2e-40c2-b38d-af579e2c8ab6)"/>
            <polygon points="859.14 254.14 859.14 946.03 864.14 944.03 864.14 252.14 859.14 254.14" style="fill: url(#a72fe3f7-3163-45ef-b74b-50c8d3d5359f)"/>
          </g>
          <g>
            <polygon points="494.32 290.55 494.32 298.29 795.54 472.2 795.54 464.46 494.32 290.55" style="fill: #32bce8"/>
            <polygon points="494.32 369.29 795.54 543.2 795.54 535.46 494.32 361.55 494.32 369.29" style="fill: #32bce8"/>
            <polygon points="494.32 474.29 795.54 648.2 795.54 640.46 494.32 466.55 494.32 474.29" style="fill: #32bce8"/>
            <polygon points="494.32 546.29 795.54 720.2 795.54 712.46 494.32 538.55 494.32 546.29" style="fill: #32bce8"/>
            <polygon points="685.39 312.66 494.32 202.34 494.32 210.09 685.39 320.4 685.39 312.66" style="fill: #32bce8"/>
            <polygon points="784.74 425.02 494.32 257.34 494.32 265.09 784.74 432.76 784.74 425.02" style="fill: #32bce8"/>
            <polygon points="767.44 491.24 494.32 333.55 494.32 341.29 767.44 498.98 767.44 491.24" style="fill: #32bce8"/>
            <polygon points="767.44 561.24 494.32 403.55 494.32 411.29 767.44 568.98 767.44 561.24" style="fill: #32bce8"/>
            <polygon points="784.74 601.23 494.32 433.55 494.32 441.29 784.74 608.97 784.74 601.23" style="fill: #32bce8"/>
            <polygon points="785.51 674.67 494.32 506.55 494.32 514.29 785.51 682.41 785.51 674.67" style="fill: #32bce8"/>
            <polygon points="494.32 581.29 678.81 687.81 678.81 680.07 494.32 573.55 494.32 581.29" style="fill: #32bce8"/>
          </g>
        </g>
        <path d="M737.86,828.91a2.65,2.65,0,0,1-2.05-1.29c-2.59-3.54-5.7-17.89-.38-39.6-.89-6.06-1.77-15.74-2.52-26.39-2.09,7.22-4,12.54-4.16,13a1,1,0,0,1-1.27.61,1,1,0,0,1-.61-1.28c0-.15,3-8.38,5.63-18.46C731,732.31,730.37,707,732,705.1a1.16,1.16,0,0,1,.89-.42c3.66,0,6,9.81,6,25,0,7.59-2.07,17.51-4.33,26.11.62,10.12,1.4,19.89,2.25,27.18.27-.92.55-1.86.85-2.81a91,91,0,0,0,3.87-21.65c0-4.72.1-8.4.1-8.76l2,0a78.27,78.27,0,0,1-.1,8.73c0,7,0,16.21.57,20.23a71,71,0,0,0,2.45,11.55c.57-3.88,1.42-12.83,2.06-21l.43-5.4,1.53,5.2c.76,2.59,3,9.72,4.07,11.45l.72,1.16c1.11-1,3.06-2.39,5.23-2.18s3.61,3,5.82,6.78a53.39,53.39,0,0,0,6,8.9c2.45,2.74,4.75,2.93,7.4,3.14a16.91,16.91,0,0,1,5.35,1.06,21.1,21.1,0,0,1,7.35,4.73,1,1,0,0,1-1.5,1.33,19.5,19.5,0,0,0-6.61-4.21,15.14,15.14,0,0,0-4.75-.92c-2.82-.22-5.74-.46-8.73-3.8a54.44,54.44,0,0,1-6.23-9.23c-1.54-2.67-3.29-5.69-4.29-5.79-1.84-.19-3.82,1.69-4.43,2.43l-.88,1.07-2.13-3.41a43.65,43.65,0,0,1-2.76-7c-.57,6.64-1.54,16.86-2.17,18.35a1.29,1.29,0,0,1-1.37.87c-2.6-.35-4.51-14.66-4.53-14.81-.21-1.53-.34-3.76-.43-6.3a81.78,81.78,0,0,1-2.12,8.15q-1.2,3.81-2.08,7.36c.09.58.18,1.13.27,1.66,2.85,16.63,4.3,35.16,1.57,38.4A1.86,1.86,0,0,1,737.86,828.91Zm-1.56-35.53c-4,20.2-.2,32.51,1.51,33.49C739.26,825.34,739.3,812.31,736.3,793.38Zm-2.95-86.32c-.68,4.29-.25,22.88.78,41.89,1.55-6.75,2.73-13.72,2.73-19.27C736.86,714.82,734.57,708.58,733.35,707.06Z" style="fill: #fdd84b"/>
      </g>
      <g>
        <g>
          <path d="M276.81,773.14c0-22.81,32.91-41.3,73.5-41.3s73.5,18.49,73.5,41.3v13c0,22.81-32.9,41.3-73.5,41.3s-73.5-18.49-73.5-41.3Z" style="fill: url(#fa8a7d9c-d975-4fdf-a1f6-1519401f537d)"/>
          <ellipse cx="350.31" cy="772.87" rx="73.5" ry="41.3" style="fill: #fddf46"/>
          <path d="M350.31,737.57c-36.58,0-67.5,16.17-67.5,35.3s30.92,35.3,67.5,35.3,67.5-16.17,67.5-35.3S386.9,737.57,350.31,737.57Z" style="fill: url(#e12b5e1e-2aa8-4831-a545-2dc3081aa61e)"/>
          <path d="M350.31,740.57c35.63,0,65.86,15.33,67.43,33.8,0-.5.07-1,.07-1.5,0-19.13-30.91-35.3-67.5-35.3s-67.5,16.17-67.5,35.3c0,.5,0,1,.08,1.5C284.45,755.9,314.69,740.57,350.31,740.57Z" style="fill: url(#bd8883ce-a9df-4740-ab65-9c02ea75ddb6)"/>
        </g>
        <g>
          <path d="M282.81,752.23c0-22.8,32.91-41.29,73.5-41.29s73.5,18.49,73.5,41.29v13c0,22.81-32.9,41.3-73.5,41.3s-73.5-18.49-73.5-41.3Z" style="fill: url(#a67aed45-fde8-4f05-89ce-131c30457ab5)"/>
          <ellipse cx="356.31" cy="751.96" rx="73.5" ry="41.3" style="fill: #fddf46"/>
          <path d="M356.31,716.67c-36.58,0-67.5,16.16-67.5,35.29s30.92,35.3,67.5,35.3,67.5-16.16,67.5-35.3S392.9,716.67,356.31,716.67Z" style="fill: url(#b9d79bb4-3ab6-440c-84d7-f92b81131633)"/>
          <path d="M356.31,719.67c35.63,0,65.86,15.33,67.43,33.79,0-.49.07-1,.07-1.5,0-19.13-30.91-35.29-67.5-35.29s-67.5,16.16-67.5,35.29c0,.51,0,1,.08,1.5C290.45,735,320.69,719.67,356.31,719.67Z" style="fill: url(#ef99723e-3a51-4341-93d6-87dd13c32b25)"/>
        </g>
        <g>
          <path d="M278,734.37c0-22.81,32.9-41.29,73.5-41.29S425,711.56,425,734.37v13c0,22.81-32.91,41.3-73.5,41.3S278,770.18,278,747.37Z" style="fill: url(#a61096f1-d27f-41d4-acec-ad671294f405)"/>
          <ellipse cx="351.54" cy="734.1" rx="73.5" ry="41.3" style="fill: #fddf46"/>
          <path d="M351.54,698.81C315,698.81,284,715,284,734.1s30.91,35.3,67.5,35.3S419,753.23,419,734.1,388.12,698.81,351.54,698.81Z" style="fill: url(#a7f5df53-f946-4561-96c4-97f7c52d3de2)"/>
          <path d="M351.54,701.81c35.62,0,65.86,15.32,67.42,33.79,0-.5.08-1,.08-1.5,0-19.13-30.92-35.29-67.5-35.29S284,715,284,734.1c0,.5,0,1,.07,1.5C285.68,717.13,315.91,701.81,351.54,701.81Z" style="fill: url(#fd7926ae-d386-4f1f-965f-d4be1f4a92d5)"/>
        </g>
        <g>
          <path d="M284.81,717.07c0-22.8,32.91-41.29,73.5-41.29s73.5,18.49,73.5,41.29v13c0,22.81-32.9,41.3-73.5,41.3s-73.5-18.49-73.5-41.3Z" style="fill: url(#b84e37a0-66ad-4913-a1ec-e5c23cecc122)"/>
          <ellipse cx="358.31" cy="716.8" rx="73.5" ry="41.3" style="fill: #fddf46"/>
          <path d="M358.31,681.51c-36.58,0-67.5,16.16-67.5,35.29s30.92,35.3,67.5,35.3,67.5-16.16,67.5-35.3S394.9,681.51,358.31,681.51Z" style="fill: url(#bccc4af6-5c8d-46e7-b2d2-f7b2b38ff251)"/>
          <path d="M358.31,684.51c35.63,0,65.86,15.32,67.43,33.79,0-.5.07-1,.07-1.5,0-19.13-30.91-35.29-67.5-35.29s-67.5,16.16-67.5,35.29c0,.51,0,1,.08,1.5C292.45,699.83,322.69,684.51,358.31,684.51Z" style="fill: url(#aea3c144-b708-4818-9cb5-e023a0248efb)"/>
        </g>
        <g>
          <path d="M281.47,692.16c0-22.8,32.9-41.29,73.49-41.29s73.5,18.49,73.5,41.29v13c0,22.81-32.9,41.3-73.5,41.3s-73.49-18.49-73.49-41.3Z" style="fill: url(#b1169cbb-ee94-44e7-8ccc-4f4a9d52aaf2)"/>
          <ellipse cx="354.96" cy="691.89" rx="73.5" ry="41.3" style="fill: #fddf46"/>
          <path d="M355,656.6c-36.58,0-67.49,16.16-67.49,35.29s30.91,35.3,67.49,35.3,67.5-16.16,67.5-35.3S391.55,656.6,355,656.6Z" style="fill: url(#a9046ead-9bd8-4a24-93c1-d87b12850031)"/>
          <path d="M355,659.6c35.63,0,65.86,15.33,67.43,33.79,0-.49.07-1,.07-1.5,0-19.13-30.91-35.29-67.5-35.29s-67.49,16.16-67.49,35.29c0,.51,0,1,.07,1.5C289.11,674.93,319.34,659.6,355,659.6Z" style="fill: url(#f8b4f2ce-a8f1-4134-be67-54a14ef8241c)"/>
        </g>
      </g>
    </g>
    <g>
      <path d="M498.79,726.88s.93-7.44-2.42-9.86a12.23,12.23,0,0,0-6.51-2.41V717L485,713.68l-9.86,3.72v8.37l3.91,3a8.9,8.9,0,0,0,3.91,7.42,31.06,31.06,0,0,0,8.74,4.46Z" style="fill: url(#f9d62029-4a76-4355-aaaa-3b489c35093d)"/>
      <g>
        <path d="M477.37,728.77s-.93-6.33,2.05-9.68,8.18-5.39,8.18-5.39l-30.32-38-1.35,34.8Z" style="fill: url(#f813213e-6e2b-4d0a-a83d-3ec9fbd37f9c)"/>
        <g>
          <path d="M381.21,918.14v16.19s11.16,13,23.81,13,13.21-8.19,13.21-10.05-22.14-16.93-22.14-16.93Z" style="fill: #1d24a8"/>
          <path d="M436.39,887.48v15.39S447,915.26,459,915.26s12.57-7.78,12.57-9.55-21.06-16.11-21.06-16.11Z" style="fill: #1d24a8"/>
          <path d="M456,737.75,454.72,889a12.18,12.18,0,0,1-8.77,3.83,41.93,41.93,0,0,1-11.63-1.3L423.07,769.67s.56-4.09-3.54-4.09-3.53,8.19-3.53,8.19L404.09,919.44s-4.83,3.91-10.79,3.91-14.88-4.65-14.88-4.65V741.77Z" style="fill: url(#f6c7ce7c-c778-4381-8e30-2460e9ceee4a)"/>
        </g>
        <g>
          <path d="M413.45,785.11l-60.65-35c-2.23-1.28-4.26-1.59-5.78-1.06S333.74,754.4,332.2,755c-1.74.65-2.91,2.18-2.91,4.71V809c0,4.67,3.83,10.71,8.51,13.41l60.65,35a8.64,8.64,0,0,0,4.29,1.31c2.52,0,14.85-5.61,16.35-6.21,1.71-.68,2.87-2.18,2.87-4.7V798.52C422,793.84,418.13,787.81,413.45,785.11Z" style="fill: url(#f636454f-cadf-4cf9-85f6-9b25d9206411)"/>
          <path d="M398.45,791.11l-60.65-35c-4.68-2.7-8.51-1.08-8.51,3.59V809c0,4.67,3.83,10.71,8.51,13.41l60.65,35c4.68,2.7,8.51,1.08,8.51-3.6V804.52C407,799.84,403.13,793.81,398.45,791.11Z" style="fill: url(#e0a596f8-e559-4625-b824-09b0f91fab46)"/>
          <g>
            <path d="M391,774.47c0,1.07-1.6,1.95-3.56,1.95s-3.56-.88-3.56-1.95v-7.26l-14.24-4.78v1.77c0,1.08-1.59,2-3.55,2s-3.56-.88-3.56-2v-6.62s-.14-2.23,1.4-3.21,4.21,0,4.21,0,13.93,5.31,18.63,7.12a6.66,6.66,0,0,1,4.23,6.7v6.28" style="fill: #4880a4"/>
            <path d="M381.37,763.53c-4.81-1.33-14.77-4.46-14.77-4.46s-1.35,0-1.39,3.54c0,1.51,0,2.65,0,3.48a6.15,6.15,0,0,0,.88.07c2,0,3.55-.88,3.55-2v-1.77l14.24,4.78v7.26c0,1.06,1.56,1.92,3.49,1.95v-8.23S387.35,765.18,381.37,763.53Z" style="fill: url(#a9a5be90-3174-497d-bfe7-c8a80810b15f)"/>
          </g>
        </g>
        <g>
          <path d="M399,593.49l-24.19,18.23V746.23s11.91,10.24,35.72,10.24,49.31-17.68,49.31-17.68V649.68s.17-37.21-5.24-45.59c-4.78-7.41-11.51-12.6-17.64-15a33,33,0,0,0-15.31-2.1Z" style="fill: url(#a573c55b-4449-475a-8ba0-446768812299)"/>
          <path d="M436.8,750.79l-1.71-83.07-6.32-36.18-19.35-41-10.42,3-24.19,18.23V746.23s11.91,10.24,35.72,10.24C419.54,756.47,428.79,753.94,436.8,750.79Z" style="fill: url(#a5d6af26-a9d3-4b70-b4ec-fc3c09b2c346)"/>
          <path d="M437,621.58l4.1-6.32-6.7-14.51h-3.54s1.93,18.23,2.55,29c.56,9.78,1.53,33,1.7,37.28-.17-2.81-1.41-14.46-10.57-35.68-8-18.53-20.65-36-20.65-36l-3.91,3.16,3.35,26,11.35,1.49-7.35,5.76s10.32,9.31,15.35,15.45,12.46,20.46,12.46,20.46,6.14-27,6-33.49,0-10.23,0-10.23Z" style="fill: url(#a53abeb7-eea1-432e-97d8-266472feceb9)"/>
          <path d="M424.49,631.37c9.16,21.22,10.4,32.87,10.57,35.68-.17-4.26-1.14-27.5-1.7-37.28-.62-10.79-2.55-29-2.55-29h1.41l-.38-1.4H406.6C410.77,605.56,418.8,618.2,424.49,631.37Z" style="fill: url(#b62e69c5-af4e-4e7c-b396-32ae047c9e9f)"/>
          <path d="M424.49,605.58a99.78,99.78,0,0,0-9.49,3.54c-2.05,1.11-6.7,7.63-6.7,7.63s-10.79-17.12-10.79-21a11.16,11.16,0,0,1,2.42-6.7h21.72c3.77-.37,15.3,13.86,15.3,13.86s-5.95-.09-7.81,1.21A10.55,10.55,0,0,1,424.49,605.58Z" style="fill: url(#edf7f330-bea8-4ee2-beef-810478198002)"/>
          <polygon points="399.93 576.09 399.93 589.02 424.49 605.58 424.49 586.23 399.93 576.09" style="fill: url(#bc435bb7-34b3-4ee3-8c74-aa34081c5189)"/>
          <path d="M401,580.09A24,24,0,0,0,419.65,589c12.28,0,20.65-15.62,20.65-31.62,0-5.77-2.23-16.19-2.23-16.19H395.84l-3.22,28.6L401,580.09" style="fill: url(#fb776b07-3102-40c0-951c-ebee0f109973)"/>
          <path d="M405.17,566.48a22.75,22.75,0,0,0,1.08-7c-.18-3.16,1.12-7.81,3.73-6.69a28.6,28.6,0,0,0,12.46,2.79c6.14,0,20.65-6,20.65-13s-17.49-19.72-29.58-19.72c-15.25,0-22.14,12.47-22.14,12.47s-8,6.88-8,17.49c0,18.79,16.56,27.34,16.56,27.34H401l.44-5.58s-5.21-4.28-5.21-8.74,3.72-5.4,6-3.16A15.91,15.91,0,0,1,405.17,566.48Z" style="fill: url(#ad560047-f22e-4a2a-bf32-30cbc3d920fb)"/>
          <path d="M368.12,741.77v6.51s-2.91,2.6-2.91,9.49,8.18,10.42,12.09,10.42,5.21-1.68,5.21-1.68-1.75-1.9-.93-3.9c1.37-3.35,5.17-1.12,5.17-1.12s1.05-7.72-3-10.56c-1.86-1.33-3.86-2.56-3.86-2.56v-5.65Z" style="fill: url(#ef2cc30d-eab5-4b74-93a3-c3497d05ff0e)"/>
          <path d="M360.86,672.93c.8,41.11,2.79,69,4.09,70.33s5.95,1.9,9.86,2c3.14.06,7.07-2,7.07-2s1-40.28,1.31-61c.37-22.69,4.46-53.39,1.48-62-.86-2.49-4.95-10.11-9.86-8.56C364.21,615.07,360.16,637,360.86,672.93Z" style="fill: url(#af6067be-7cbe-45bd-bd87-e41da60d155e)"/>
        </g>
      </g>
      <g>
        <path d="M571.35,657.86l.18-10.6a18.16,18.16,0,0,1-12.46-10.79c-6.7-16.56-1.3-40.56-1.3-40.56l41.11-3.54v59.27l-27.53,6.22Z" style="fill: url(#afd1a15f-5f7f-4b8b-9855-80336369333d)"/>
        <path d="M570.79,621.77s2.23-3.35,5.77-3.35,5.58,5.21,3,8.93a15,15,0,0,1-5.58,5s10.61,14.14,16.75,14.14,26.42-13.76,26.42-31.25c0-11.72-4.28-14.33-4.28-14.33S610.79,581,587.72,581s-33.3,10.42-33.3,12.84c0,4.65,13.39,11.91,13.39,11.91a47.4,47.4,0,0,0,.37,8A66.46,66.46,0,0,0,570.79,621.77Z" style="fill: url(#a5fbaa47-92d1-48c9-bb8e-9e6781a62fb7)"/>
        <path d="M604.84,651.64s-.56-4.57-8.75-3.83-22.9,4.27-24.66,5.21-3.06,3.17-2.5,4.84,10.6,2.23,10.6,2.23Z" style="fill: url(#a4a38662-12d1-41ae-a85e-49bcb40a14b4)"/>
        <path d="M603,952.74H584.84s-3.82-.37-5.77,2.7a4.41,4.41,0,0,0,0,5.3s17.16,8.55,26.51,10.89C617.86,974.7,625.3,968,625.3,968V951.63Z" style="fill: #1737bc"/>
        <path d="M544.37,801.86s.26,78.52.63,101.77c.35,22.21,2.18,78.93,2.34,83.92H529.92s-3.88-.38-5.87,2.75a4.5,4.5,0,0,0,0,5.4s17.47,8.7,27,11.08c12.51,3.12,20.08-3.7,20.08-3.7V990l.23-.08,12.83-149.76s.66-4.84,3.17-4.84c1.49,0,1.86,3.91,1.86,3.91L603,952.74s7.44,4.47,12.27,4.47,10-5.58,10-5.58V797.21Z" style="fill: url(#e362f1e4-6afc-4b93-8e2f-719815f9f6df)"/>
        <g>
          <g>
            <path d="M608.93,652.47s7.44-4.1,14.88,5.95,12.47,32,12.47,56.37c0,38-8.19,61.79-8.19,61.79Z" style="fill: url(#ece3079e-925b-4e6f-a2e4-302034453ac5)"/>
            <path d="M540.09,802.42a52.62,52.62,0,0,0,37.77,16.37c23.81,0,51.72-19.53,51.72-19.53S632,700.84,629,684.09s-7.25-34.41-27.72-34.41-49.67,11.72-50.42,19.16-10.79,88.56-10.79,88.56Z" style="fill: url(#ab37e684-96c4-4deb-a389-e0ad13593e1e)"/>
          </g>
          <path d="M538.16,700.42c-2.55,26.74-8.67,42.84-8.67,42.84l-30.51-18a19.73,19.73,0,0,0-7.07,7.26c-2.19,4.2-2.05,10.79-2.05,10.79s14.88,12.83,26.23,18,25.35,10.36,29.58,6.89c9.31-7.63,24.19-67,24.19-84.65C569.86,665.12,542.63,653.64,538.16,700.42Z" style="fill: url(#bc620afc-4512-4ed0-8479-6ed00337c4f4)"/>
        </g>
      </g>
    </g>
    <g>
      <path d="M586,339.33c-2.87-4.93-17-2.06-31.48,6.4S530.59,365,533.46,370l93.68,160.69c2.87,4.92,17,2.06,31.48-6.4s24-19.32,21.08-24.24Z" style="fill: url(#ab0b8a0e-7280-40a7-b7d3-aea5ffd5248c)"/>
      <ellipse cx="559.74" cy="354.65" rx="30.42" ry="10.33" transform="translate(-102.44 330.16) rotate(-30.24)" style="fill: url(#a1e4b0ba-ea8c-4bd3-b0aa-11200218daf1)"/>
      <path d="M536.82,286.69c-1.36-2.33-8-1-14.92,3s-11.36,9.15-10,11.49l34.33,58.89c1.36,2.33,8,1,14.92-3s11.35-9.15,10-11.49Z" style="fill: url(#a0237ade-fe67-4c48-9805-9a1e85c32f20)"/>
      <path d="M381.23,7.72,345.81,28.37c-44.74,26.08-44.13,110.49,1.36,188.53S465.81,337.05,510.55,311L546,290.32c44.74-26.08,44.13-110.48-1.36-188.52S426-18.36,381.23,7.72ZM503.39,281.81c-35.17,11.41-88.28-24-123.31-84.09S340.4,74,367.66,49c35.17-11.41,88.28,24,123.32,84.1S530.65,256.82,503.39,281.81Z" style="fill: url(#b1e1b782-9cde-42ae-ac0c-ce1e10f34d4e)"/>
      <path d="M345.81,28.37c-44.74,26.08-44.13,110.49,1.36,188.53S465.81,337.05,510.55,311s44.13-110.48-1.36-188.52S390.55,2.29,345.81,28.37ZM503.39,281.81c-35.17,11.41-88.28-24-123.31-84.09S340.4,74,367.66,49c35.17-11.41,88.28,24,123.32,84.1S530.65,256.82,503.39,281.81Z" style="fill: #fddf46"/>
      <path d="M380.08,197.72C345,137.61,340.4,74,367.66,49a39.53,39.53,0,0,0-7.81,3.48c-34.68,20.21-32.2,89.09,5.54,153.83s96.45,100.83,131.13,80.62a39.94,39.94,0,0,0,6.87-5.09C468.22,293.22,415.11,257.82,380.08,197.72Z" style="fill: url(#a07a4065-a50b-40a6-b8ac-9ccd5e070f62)"/>
    </g>
  </g>
</svg>
