<svg version="1.1" id="menu-close" xmlns="http://www.w3.org/2000/svg" xmlns:xlink="http://www.w3.org/1999/xlink" x="0px" y="0px" viewBox="0 0 512 512" style="enable-background:new 0 0 512 512;" xml:space="preserve">
  <path d="M284.3,256L437,103.3c7.8-7.8,7.8-20.5,0-28.3c-7.8-7.8-20.5-7.8-28.3,0L256,227.7L103.3,75c-7.8-7.8-20.5-7.8-28.3,0 c-7.8,7.8-7.8,20.5,0,28.3L227.7,256L75,408.7c-7.8,7.8-7.8,20.5,0,28.3c7.8,7.8,20.5,7.8,28.3,0L256,284.3L408.7,437 c7.8,7.8,20.5,7.8,28.3,0c7.8-7.8,7.8-20.5,0-28.3L284.3,256z"/>
</svg>