<svg version="1.1" id="Capa_1" xmlns="http://www.w3.org/2000/svg" xmlns:xlink="http://www.w3.org/1999/xlink" x="0px" y="0px" viewBox="0 0 2426.5 1406" style="enable-background:new 0 0 2426.5 1406;" xml:space="preserve">
<style type="text/css">
	.st0{fill-rule:evenodd;clip-rule:evenodd;fill:#D76F2C;}
</style>
<g>
	<path class="st0" d="M0,699.3h145.9v53h-45.1v88.8h164.4v-88.8h-46.4v-53h148.5v53h-47.7v261.2h47.7v51.7H218.8v-51.7h46.4V892.9
		H100.8v120.7h45.1v51.7H0v-51.7h46.4V752.3H0V699.3z M1744.9,699.3h299.7v102.1h-50.4v-49.1h-145.9v87.5H1973v51.7h-124.6v122
		h144.5v-70.3h53v122h-301v-51.7h49.1V752.3h-49.1V699.3z M434.9,699.3h301v102.1h-51.7v-49.1H538.3v87.5H663v51.7H538.3v122h144.5
		v-70.3h53v122h-301v-51.7H484V752.3h-49.1V699.3z M1832.5,650.2h107.4l26.5,31.8h-104.7L1832.5,650.2z M2339,855.7
		c-37.1-9.3-62.3-8-100.8-19.9c-33.2-11.9-39.8-31.8-39.8-45.1c0-14.6,14.6-50.4,67.6-50.4s88.8,35.8,90.2,66.3h51.7V699.3h-50.4
		v23.9l2.7,6.6v1.3v-1.3c-1.3,0-2.7-4-8-8v-1.3c-14.6-13.3-45.1-29.2-90.2-29.2c-54.4,0-118,34.5-118,99.4
		c0,63.7,45.1,84.9,84.9,95.5c38.5,10.6,58.3,10.6,91.5,19.9c31.8,8,53,27.8,53,57c0,26.5-17.2,62.3-86.2,62.3
		c-67.6,0-95.5-37.1-103.4-88.8h-49.1v128.6h50.4v-23.9l-1.3-6.6c0,0,1.3,4,8,8v1.3c25.2,19.9,59.7,33.1,102.1,33.1
		c49.1,0,132.6-25.2,132.6-112.7C2426.5,900.8,2393.3,871.6,2339,855.7L2339,855.7z M1626.9,1013.5V752.3h49.1v-53h-132.6
		l-88.8,214.8l-1.3,10.6l-2.7-10.6l-87.5-214.8h-133.9v53h49.1v261.2h-49.1v51.7H1379v-51.7h-46.4V757.6l4,12l102.1,244h29.2
		l102.1-244l2.7-13.3l1.3,14.6v242.7h-46.4v51.7H1676v-51.7L1626.9,1013.5L1626.9,1013.5z M558.2,558.7h-50.4v-13.3H545
		C546.3,548.1,554.2,554.7,558.2,558.7z M1824.5,558.7c0-5.3,5.3-10.6,11.9-13.3h26.5v13.3H1824.5z M991.8,568
		c-22.5,10.6-50.4,9.3-72.9,0H655c-25.5,10.6-54.1,10.6-79.6,0h-67.6v25.2H1863V568H991.8z M670.9,558.7c4-2.7,13.3-11.9,14.6-13.3
		h204.2c2.6,4,9.3,10.6,13.3,13.3H670.9L670.9,558.7z M956,550.8c34.5,0,63.6-29.2,63.6-63.6c0-35.8-29.2-65-63.6-65
		c-35.9,0.1-64.9,29.1-65,65C891,521.6,920.2,550.8,956,550.8V564c-43.8,0-78.2-34.5-78.2-76.9c0-43.8,34.5-78.2,78.2-78.2
		c42.4,0,76.9,34.5,76.9,78.2c0,42.5-34.4,76.9-76.9,76.9V550.8z M702.8,476.5c0-47.7-39.8-87.5-87.5-87.5
		c-49.1,0-87.5,39.8-87.5,87.5c0,49.1,38.5,87.5,87.5,87.5C663,564,702.8,525.6,702.8,476.5h-14.6c0,41.1-33.2,74.3-72.9,74.3
		c-40.9,0.1-74.2-33.1-74.3-74c0-0.1,0-0.2,0-0.2c0-41.1,33.2-72.9,74.3-72.9c40.2-0.1,72.8,32.4,72.9,72.5c0,0.1,0,0.3,0,0.4H702.8
		z"/>
	<path class="st0" d="M997.1,530.9l-26.5-30.5v-1.3c1.3-1.3,1.3-2.7,2.6-4l39.8,10.6c1.3,0,4,1.3,4,2.6c0-1.3,1.3-6.6,2.6-9.3
		c-1.3,1.3-4,1.3-6.6,1.3l-37.1-10.6c-1.3,0-1.3-1.3-1.3-1.3v-6.6l38.5-14.6c0,0,4,0,4,1.3c0-1.3-2.7-8-2.7-9.3c0,1.3-2.7,4-4,4
		l2.7-1.3l-39.8,14.6c0,1.3,0,0-1.3,0c-0.1-1.4-1.2-2.6-2.7-2.7c0-1.3-1.3-2.7,0-2.7l21.2-33.2c1.3-1.3,4-2.7,5.3-2.7
		c-1.3,0-6.6-4-9.3-5.3c1.3,0,1.3,4,0,5.3l-21.2,33.2h-2.6c0,0-2.7-1.3-4-1.3c0,0-1.3,0-1.3-1.3l-1.3-38.4c0-2.7,0-5.3,2.7-5.3
		h-10.6c1.3,0,2.7,4,2.7,5.3l1.3,38.4c0,1.3-1.3,1.3-1.3,1.3s-2.7,1.3-4,2.7c0,0-1.3,0-1.3-1.3L920.2,438c-1.3-1.3-1.3-4-1.3-5.3
		c-1.3,1.3-6.6,5.3-8,6.6c1.3,0,4,1.3,5.3,2.7l25.2,30.5v1.3c-1.3,0-2.7,2.7-2.7,4c0,0-1.3,1.3-2.7,1.3L899,468.5
		c-2.7-1.3-4-2.7-4-4c0,1.3-2.7,8-2.7,9.3c0,0,4-1.3,5.3,0l37.1,9.3c1.3,0,1.3,1.3,1.3,1.3v6.6L899,507c-1.3,0-4,1.3-4,0
		c0,1.3,1.3,6.6,2.6,9.3c0-1.3,2.7-4,4-4l35.8-15.9c1.3,0,1.3,1.3,1.3,1.3c1.3,0,2.7,1.3,2.7,2.6c1.3,0,1.3,1.3,1.3,1.3l-22.5,33.2
		c-1.3,1.3-2.7,2.6-4,2.6c1.3,1.3,6.6,5.3,8,5.3c-1.3,0,0-4,0-5.3l22.5-31.8c0-1.3,1.3-1.3,1.3-1.3c1.3,1.3,2.7,1.3,4,1.3
		s1.3,0,1.3,1.3l2.7,39.8c0,1.3-1.3,4-2.7,4H964c-2.7,0-2.7-2.6-2.7-5.3l-2.6-38.5c0-1.3,1.3-1.3,1.3-1.3c1.3,0,4-1.3,5.3-2.7
		c0,0,1.3,0,1.3,1.3l26.5,29.2c0,1.3,1.3,4,1.3,5.3l6.6-6.6C999.8,533.5,997.1,530.9,997.1,530.9L997.1,530.9z M612.6,426.1
		c37.1,0,74.3,4,95.5,10.6c2.6,0,2.6,2.6,0,4c-22.5,5.3-59.7,9.3-94.1,9.3c-34.5,1.3-71.6,0-95.5-5.3c-2.6,0-2.6-2.7,0-2.7
		C539.7,434.1,575.5,427.5,612.6,426.1v-6.6c-39.8,1.3-79.6,10.6-112.7,22.5c-4,1.3-4,4,0,4c37.1,9.3,75.6,10.6,114,9.3
		c37.1-1.3,76.9-4,112.7-14.6c5.3-1.3,4-4,1.3-4c-37.4-11.4-76.3-17.2-115.4-17.2V426.1z"/>
	<path class="st0" d="M1006.4,402.3c-9.3,2.7-25.2,8-33.2,8c-6.6,0-39.8-1.3-62.3,0c-30.5,1.3-33.2,5.3-34.5,2.7
		c-6.6-10.6-11.9-26.5-22.5-35.8c-62.3,10.6-123.3,1.3-179-18.6v-8c4,1.3,6.6,1.3,9.3,1.3c-9.3-13.3-25.2-17.2-34.5-31.8
		c-5.3-4-6.6-11.9-11.9-15.9c1.3,14.6-10.6,25.2-11.9,37.1c8,2.7,18.6,2.7,22.5,1.3c5.3-1.3,11.9,0,14.6,4c4,1.3,6.6,4,11.9,4v8
		c-6.6-1.3-8-2.7-13.3-5.3c-6.6,2.7-11.9,1.3-14.6-1.3c-1.3-1.3-14.6-1.3-19.9-1.3c-17.2,0-35.8,6.6-45.1,21.2
		c-4,8-2.7,17.2,1.3,23.9c2.7,4,14.6,21.2,22.5,26.5l-10.6,2.7c-15.9-14.6-27.8-27.8-25.2-45.1c8-37.1,42.4-31.8,51.7-47.7
		c6.6-14.6,9.3-57,1.3-68.9c-22.5-9.3-50.4-21.2-55.7-47.7c-1.3-6.6,1.3-14.6,8-15.9c11.9-2.6,19.9,4,29.2,8c4-2.7-4-11.9,5.3-11.9
		c11.9,0,19.9,23.9,23.9,25.2l-1.3,9.3c-8-2.6-37.1-18.6-39.8-19.9c-5.3-2.7-11.9-6.6-15.9-1.3c-5.3,6.6,1.3,14.6,5.3,21.2
		c62.3,65,165.7-4,233.4,42.4c1.3-4,0-5.3-2.7-6.6c-46.4-43.7-120.7-21.2-180.3-35.8l1.3-9.3c74.3,18.6,172.4-11.9,210.8,72.9
		c25.2,35.8,51.7,92.8,106.1,94.1c43.8,1.3,72.9-15.9,94.1-47.7c29.2-53,46.4-114,98.1-149.8c5.3-2.7,8,0,5.3,1.3
		c-25.2,25.2-47.7,58.4-59.7,86.2c19.9,75.6,63.6,59.7,74.3,58.3c-2.7-27.8,0-110,59.7-129.9c35.3-27.2,82.7-32.8,123.3-14.6
		c-46.4,43.8-74.3,106.1-83.5,149.8l-51.7,14.6c4-8,4-21.2,2.7-35.8c-5.3,2.6-10.6,6.6-22.5,13.3c-5.3,1.3-1.3-6.6-1.3-6.6
		c0-2.6,13.3-8,23.9-14.6c-4-30.5-6.6-70.3,18.6-95.5c-51.7,17.2-37.1,126-31.8,139.2c-14.6,6.6-34.5,6.6-34.5,6.6l-2.7-18.6
		c-22.5,8-61,2.7-78.2-57C1066.1,325.4,1050.1,386.3,1006.4,402.3L1006.4,402.3z M1815.2,240.5c-2.7-2.7-4-4-6.6-4
		c-1.3-1.3,0-2.7,1.3-2.7c1.3-1.3,4,0,5.3,2.7C1816.6,237.8,1816.6,240.5,1815.2,240.5L1815.2,240.5z"/>
	<path class="st0" d="M628.5,496.4l27.8,31.8c2.7,2.7,2.7,6.6,1.3,8c4-1.3,9.3-8,11.9-10.6c-1.3,1.3-6.6,1.3-8-1.3l-29.2-31.8v-2.6
		l1.3-1.3c0-1.3,1.3-1.3,1.3-1.3l41.1,14.6c4,2.6,5.3,5.3,5.3,6.6c1.3-2.6,4-10.6,5.3-13.3c-1.3,1.3-5.3,2.7-8,1.3l-41.1-14.6
		c-1.3,0-1.3,0-1.3-1.3v-2.7c0-1.3,1.3-1.3,1.3-1.3l42.4-6.6c5.3-1.3,8,1.3,8,2.6c0-2.6-1.3-11.9-1.3-14.6c0,1.3-2.7,5.3-8,6.6
		l-41.1,6.6c-1.3,0-1.3-1.3-1.3-1.3c-1.3-1.3-1.3-2.7-2.7-4v-1.3l33.2-27.8c4-2.7,8-2.7,9.3-1.3c-2.6-2.7-8-9.3-10.6-11.9
		c1.3,1.3,0,5.3-2.7,9.3l-31.8,26.5c-1.3,1.3-1.3,1.3-1.3,0c-1.3,0-2.6,0-4-1.3c0,0-1.3-1.3,0-1.3l14.6-41.1c1-2.9,3.6-5,6.6-5.3
		c-2.7-1.3-11.9-5.3-14.6-5.3c1.3,0,4,5.3,2.6,9.3L620.5,454c0,1.3-1.3,1.3-1.3,1.3h-4l-1.3-1.3l-8-42.4c0-5.3,2.7-8,2.7-8
		c-2.7,0-10.6,1.3-14.6,2.7c1.3,0,5.3,2.7,6.6,6.6l8,41.1c0,1.3,0,1.3-1.3,2.7c-1.3,0-2.6,1.3-4,1.3H602l-29.1-31.8
		c-2.7-4-2.7-8-1.3-8c-2.7,1.3-9.3,6.6-10.6,9.3c1.3,0,5.3,0,8,2.6l29.2,31.8v1.3l-2.7,2.6H594l-39.8-14.6c-4-1.3-6.6-5.3-5.3-6.6
		c-2.7,4-4,11.9-5.3,14.6c1.3-1.3,5.3-2.7,9.3-1.3l39.8,13.3v6.6l-42.4,8c-4,0-8-2.6-8-4c0,4,1.3,13.3,2.7,15.9
		c0-1.3,1.3-5.3,6.6-6.6l41.1-8c0,0,1.3,0,1.3,1.3s0,1.3,1.3,2.7v1.3L562.2,515c-4,4-8,2.7-8,1.3c0,4,6.6,10.6,8,11.9
		c0-1.3,0-5.3,2.7-8l34.5-26.5c0-1.3,0-1.3,1.3,0l2.7,2.6c1.3,0,1.3,0,1.3,1.3l-14.6,39.8c-1.3,4-5.3,6.6-6.6,5.3
		c2.7,1.3,10.6,5.3,14.6,5.3c-2.7,0-4-4-2.7-8l14.6-41.1c0,0,0-1.3,1.3-1.3c1.3,1.3,2.6,1.3,4,1.3c0,0,1.3,0,1.3,1.3l8,41.1
		c0,5.3-2.7,8-4,9.3c4,0,11.9-2.6,14.6-4c-1.3,1.3-5.3-2.6-5.3-5.3l-8-42.4v-1.3c1.3,0,2.7-1.3,4-1.3
		C627.2,495.1,627.2,495.1,628.5,496.4L628.5,496.4z M1796.7,245.8c-1.3-1.3,0-2.6,0-4c1.3-4,2.6-4,2.6-8c-6.6-5.3-8-15.9-4-18.6
		c4-4,17.2,1.3,17.2,1.3c11.9-9.3,15.9-15.9,22.5-19.9c9.3,0,27.8,17.2,27.8,27.8c-2.7,4-9.3,10.6-19.9,23.9c4,9.3,4,15.9-2.7,21.2
		c-1.3,0-4,0-6.6-2.7c1.3,13.3,15.9,21.2,21.2,31.8c0,21.2,22.5,47.7-2.7,65c-5.3,2.7-10.6,6.6-13.2,11.9
		c4,21.2,11.9,43.8,15.9,66.3l-25.2,1.3c-2.6,8-10.6,22.5-8,30.5c0,0-1.3-1.3,1.3,0c4,5.3,5.3,49.1,4,53c0,5.3,4,5.3,1.3,14.6
		c-2.7,1.3-13.2,8-14.6,11.9c-6.6,6.6-25.2,8-25.2,5.3c0-6.6,13.2-14.6,15.9-22.5c2.6-31.8,0-63.7-17.2-88.8
		c-6.6-4-11.9,6.6-15.9,11.9c6.6,19.9,18.6,41.1,17.2,63.6c0,6.6,8,15.9,4,25.2l-21.2,10.6h-76.9c-2.6-4-8-8-6.6-13.3h68.9
		c0-2.7,6.6-1.3,13.3-11.9c0-31.8-33.2-78.2-27.8-94.1c6.6-19.9,15.9-35.8,26.5-62.3l5.3-1.3c-11.9,39.8-29.2,59.7-26.5,71.6
		c1.3,6.6,4,11.9,8,19.9l2.7,8c1.3,4,5.3,13.3,8,15.9c4,0,6.6-2.7,9.3-4c0-5.3-4-11.9-6.6-15.9l-10.6,4l-2.7-8c8,0,13.2-5.3,6.6-9.3
		c18.6-9.3-4-6.6,2.6-10.6c10.6-5.3,15.9-25.2,17.2-37.1c0-2.7,1.3-4,4-4c8,21.2,8,49.1,21.2,68.9v6.6c-1.3,5.3,0,11.9,2.7,15.9
		c11.9,1.3,10.6-1.3,8-15.9c-2.6,0-8-1.3-10.6,0v-6.6c1.3-1.3,6.6,0,8-1.3c-4-6.6-4-11.9-4-18.6c0-4,2.7-11.9,5.3,5.3
		c4,1.3,10.6-30.5,11.9-41.1c-25.2,5.3,0-23.9-18.6-25.2l9.3-15.9c0-5.3-4-9.3-10.6-6.6l-5.3-6.6c-4-1.3-8-8-13.2-11.9
		c-4,4-10.6,11.9-11.9,17.2c-1.3,1.3,2.7,2.6,4,1.3c4-4,6.6,4,13.2,2.6c2.7-2.6,10.6-4,8-9.3l5.3,6.6c-5.3,2.6-5.3,11.9-5.3,18.6
		c-9.3,17.2-5.3-9.3-15.9-9.3c-6.6,4-9.3-6.6-13.2-5.3l-5.3,1.3c0-9.3,1.3-19.9,0-30.5c8-45.1,17.2-43.8,18.6-57
		c0-5.3,19.9-15.9,18.6-21.2c1.3,0,4,4,4,5.3c-1.3,6.6-14.6,6.6-13.2,21.2c8-14.6,30.5-13.3,31.8-30.5c-4-10.6,5.3-4,5.3-14.6
		c-2.6-2.7-10.6-10.6-11.9-14.6c-1.3-1.3,4-9.3-14.6-9.3c-1.3,1.3-2.6,9.3-5.3,13.3c-1.3,1.3-4,4-2.7,5.3c0,1.3,2.7,2.6,2.7,8
		c-1.3,5.3,0,8,2.7,10.6c10.6,5.3,18.6,0,6.6,6.6c0,1.3,0,2.6-1.3,4c0-1.3-4-6.6-5.3-8c-1.3,0-8-4-6.6-9.3
		C1799.3,251.1,1799.3,248.5,1796.7,245.8L1796.7,245.8z M1440,195.4c1.3,9.3-4,15.9-4,25.2c9.3,22.5,0,39.8,2.7,61
		c-10.6-6.6-13.2-23.9-17.2-42.4c-2.7-15.9,1.3-21.2,2.6-38.5L1440,195.4z M1412.1,202c-1.3,27.8-5.3,41.1,14.6,84.9
		c-50.4,21.2-91.5,35.8-151.1,53c6.6-42.4,47.7-123.3,82.2-145.9C1386.9,202,1412.1,202,1412.1,202L1412.1,202z"/>
	<path class="st0" d="M1282.2,513.6c-13.2,4-13.2,11.9-5.3,19.9c5.3,4,10.6,10.6,10.6,11.9h-84.9c0,4,4,6.6,6.6,13.3h469.4
		c2.7-6.6-5.3-14.6-8-22.5c-33.2-11.9-33.2-42.4-34.5-76.9c0-1.3-2.7-5.3-2.7-11.9c-4-5.3-26.5-59.7-15.9-103.4l8-14.6
		c6.6-9.3-1.3-14.6,4-25.2l98.1-18.6c1.3-1.3,1.3-5.3-1.3-6.6c0-1.3,1.3,0,0,0l-95.5,17.2c5.3-23.9-15.9-31.8-6.6-51.7
		c13.2,14.6,49.1,39.8,67.6,43.7l9.3-1.3c-23.9-10.6-66.3-35.8-90.2-68.9c-2.7,0-5.3-2.7-8-4c0,2.6,6.6,10.6,5.3,11.9
		c0,0-15.9,10.6-45.1-2.7c-9.3,18.6-112.7,65-112.7,65c4,29.2,17.2,47.7,31.8,63.7c1.3,2.6-4-2.7,0,0c21.2,17.2,46.4,25.2,74.3,30.5
		c5.3,15.9,25.2,67.6,26.5,75.6c2.7,8,6.6,8,6.6,8c2.7,2.7,11.9,19.9,11.9,26.5l2.7,27.8c1.3,6.6,9.3,1.3,10.6,8l-4,17.2h19.9
		c-10.6-9.3-4-25.2-17.2-31.8c-1.3-15.9-2.6-27.8-9.3-34.5c-5.3-15.9-22.5-58.3-33.2-96.8l6.6-9.3c-29.2,8-51.7-2.6-78.2-17.2
		c-19.9-9.3-8-1.3-1.3-5.3c31.8,14.6,47.8,10.6,71.6,8c2.7,4,8,8,8,14.6l-6.6,9.3c6.6-6.6,11.9-2.7,15.9,15.9
		c5.3,15.9,10.6,27.8,14.6,41.1c5.3,13.3,9.3,30.5,13.3,39.8c0,0,4,0,6.6,5.3c9.3,29.2,11.9,33.2,10.6,46.4
		c2.7,10.6,17.2,1.3,15.9,14.6h-348.7c5.3-21.2-6.6-39.8,0-59.7c-13.3-21.2-46.4-37.1-41.1-66.3c15.9-22.5,67.6-45.1,55.7-71.6
		c47.7-23.9,71.6,15.9,115.4,11.9c15.9,0,33.1-2.7,47.7-6.6c-18.6-14.6-34.5-37.1-43.7-57c-92.8,38.4-183,68.9-282.4,88.8l-8-2.7
		c-9.3,1.3-160.4,35.8-155.1,42.4c-57,4-123.3,27.8-137.9,35.8c-6.6,4-8,6.6,0,9.3c61,15.9,111.4,4,205.5-31.8l-6.6-5.3
		c-5.3,4-82.2,30.5-112.7,34.5c-31.8,4-59.7,2.7-72.9-1.3c-4-1.3-4-1.3-1.3-2.6c59.7-23.9,175-45.1,190.9-25.2
		c9.3,2.7,15.9,8,21.2,14.6s15.9,4,23.9,2.7c10.6-2.7,11.9-11.9,11.9-21.2l-11.9-1.3c-5.3,0-26.5,2.7-29.2,5.3
		c-8-6.6-15.9-13.3-26.5-15.9c21.2-9.3,55.7-17.2,74.3-18.6c-17.2,11.9-9.3,26.5-18.6,29.2l11.9,1.3c0-5.3,0-9.3,2.7-11.9
		c11.9-29.2,62.3-33.2,87.5-39.8c0,0-13.3,17.2-22.5,21.2c-2.6,41.1-17.2,76.9-19.9,118c11.9,0,11.9,13.3,14.6,21.2
		c-4,6.6-9.3,0-14.6,1.3c-18.6-9.3,4-25.2-10.6-38.5c8-33.2,19.9-66.3,19.9-100.8c-5.3,0-6.6,5.3-9.3,9.3
		c-4,33.2-13.3,63.6-21.2,94.1c2.6,2.7,9.3,5.3,9.3,10.6c-10.6,6.6,0,18.6-4,26.5H1021l-11.9,13.3h183l1.3-6.6
		c-26.5-29.2-17.2-71.6-4-103.4l31.8-42.4c26.5-10.6,42.4-42.4,70.3-53c0,14.6-17.2,19.9-26.5,27.8c-10.6,22.5-41.1,25.2-45.1,50.4
		c11.9,13.3,29.2,22.5,43.8,34.5c14.6,9.3,10.6,29.2,21.2,38.5C1287.5,507,1284.8,512.3,1282.2,513.6L1282.2,513.6z"/>
	<path class="st0" d="M1485.1,35c-5.3,8-15.9,13.3-9.3,27.8c-13.3,8-9.3,19.9-5.3,26.5c-6.6,6.6-10.6,19.9-1.3,27.8
		c-10.6,11.9,2.7,22.5,6.6,26.5c-5.3,11.9,0,21.2,0,21.2c-1.3,8-15.9,21.2-21.2,25.2c-8,19.9-5.3,61-4,88.8
		c37.1-18.6,74.3-35.8,103.4-61c-25.2-17.2-45.1-58.3-72.9-55.7c-2.7-29.2-14.6-80.9,26.5-133.9c5.3-2.7,13.2-4,17.2-6.6
		c-17.2-2.6-39.8,8-55.7-1.3C1469.2,20.4,1477.1,33.7,1485.1,35z"/>
	<path class="st0" d="M1573.9,21.7c0,1.3,5.3,4,5.3,4s5.3-1.3,5.3-2.6c0-1.3,1.3-5.3,0-6.6c-1.3,0-5.3-1.3-8-1.3
		C1576.6,15.1,1573.9,20.4,1573.9,21.7l-2.7,2.7l-18.6-13.3l2.7-2.7c0,0,8-8,11.9-8c4-1.3,25.2,0,30.5,4c4,4,6.6,6.6,11.9,15.9
		c14.6,10.6,38.5,10.6,53,22.5c-2.7,4,4,10.6-1.3,13.3c-4,1.3-13.3-1.3-14.6,1.3l-1.3,8l-5.3-1.3c0,0,2.7-9.3,0-9.3
		c-2.7-1.3-8-4-10.6-2.7c-1.3,1.3,0,2.7,1.3,5.3c0,2.6,6.6,4,10.6,2.6l5.3,1.3l6.6,1.3c-2.7,6.6-4,9.3-13.3,6.6
		c-2.7,6.6,11.9,11.9,13.3,14.6c-1.3,2.7-4,5.3-13.3,0c0,0-38.5,37.1-61,47.7c-23.9,10.6-1.3-5.3-1.3-5.3c10.6-4,57-43.8,57-47.7
		c-1.3-2.7-4-8-4-11.9c-6.6-2.7-19.9,1.3-25.2,5.3c2.7,11.9,23.9,71.6,8,161.8l-2.6-2.6c14.6-87.5-9.3-157.8-9.3-157.8
		c-13.2,5.3-22.5,1.3-29.2,2.7c-2.7,54.4,41.1,62.3,25.2,133.9c-46.4-8-79.5-65-106.1-59.7c-1.3-9.3-10.6-25.2-1.3-30.5
		c-2.6-8-5.3-18.6,6.6-25.2c-4-10.6-5.3-19.9,6.6-27.8c-2.7-6.6-1.3-21.2,13.2-23.9c1.3-11.9,6.6-21.2,17.2-25.2
		c-11.9-5.3-14.6-17.2-14.6-17.2c10.6,6.6,19.9,10.6,35.8,8L1573.9,21.7L1573.9,21.7z M1123.1,1013.5l-1.3-74.3
		c0-22.5-14.6-46.4-34.5-59.7c-4-1.3-10.6-4-15.9-4c5.3,0,11.9,0,18.6-2.7c19.9-9.3,43.8-34.5,43.8-78.2c0-33.2-13.3-58.3-37.1-75.6
		c-22.5-15.9-47.7-19.9-74.3-19.9H818.1v53h46.4v261.2h-46.4v51.7H964v-51.7h-46.4V898.2h100.8c34.5,1.3,47.7,23.9,47.7,42.4
		l4,124.6h99.4v-51.7L1123.1,1013.5L1123.1,1013.5L1123.1,1013.5z M1028.9,847.8H917.6v-95.5h104.8c11.9,0,25.2,0,35.8,4
		c13.3,6.6,25.2,21.2,25.2,43.7C1083.3,827.9,1058.1,847.8,1028.9,847.8z M799.5,1195.2c47.7,0,68.9,26.5,68.9,59.7
		c0,33.2-22.5,58.3-72.9,58.3h-34.5v91.5h-30.5v-209.5L799.5,1195.2L799.5,1195.2L799.5,1195.2z M761.1,1286.7h37.1
		c22.5,0,38.4-12,38.4-33.2c0-15.9-9.3-31.8-37.1-31.8h-38.5L761.1,1286.7L761.1,1286.7L761.1,1286.7z M1105.8,1404.7h-33.2
		l-26.5-62.3h-91.5l-25.2,62.3h-33.2l92.8-210.8h21.2L1105.8,1404.7z M966.6,1314.5h67.6l-35.8-82.2L966.6,1314.5L966.6,1314.5z
		 M1454.6,1404.7h-30.5v-209.5h30.5V1404.7z M1673.4,1240.2c-19.9-15.9-38.5-21.2-54.4-21.2c-19.9,0-35.8,9.3-35.8,23.9
		c0,41.1,98.1,39.8,98.1,107.4c0,31.8-26.5,55.7-63.7,55.7c-23.9,0-45.1-5.3-63.6-18.5V1349c17.2,19.9,38.5,30.5,61,30.5
		c25.2,0,37.1-14.6,37.1-26.5c0-42.4-99.5-47.8-99.5-104.7c0-34.5,27.9-55.7,68.9-55.7c18.6,0,34.5,4,51.7,14.6L1673.4,1240.2
		L1673.4,1240.2L1673.4,1240.2z M1326,1379.5c-4-5.3-8-10.6-11.9-17.2c-15.9-26.5-29.2-45.1-49.1-57c23.9-9.3,37.1-27.8,37.1-51.7
		c0-35.8-27.9-58.3-72.9-58.3h-54.4v209.5h31.8v-91.5h13.3c15.9,0,29.2,5.3,57,47.8l29.2,43.7h35.8L1326,1379.5L1326,1379.5z
		 M1226.5,1286.7h-19.9v-66.3h19.9c30.5,0,42.4,11.9,42.4,31.8C1270.2,1269.4,1261,1286.7,1226.5,1286.7L1226.5,1286.7z"/>
</g>
</svg>
