<svg width="19" height="19" viewBox="0 0 19 19" fill="none" xmlns="http://www.w3.org/2000/svg">
<path d="M17.6684 8.00018H10.9184V1.25018C10.9184 0.875183 10.5434 0.500183 10.1684 0.500183H8.6684C8.24652 0.500183 7.9184 0.875183 7.9184 1.25018V8.00018H1.1684C0.746521 8.00018 0.418396 8.37518 0.418396 8.75018V10.2502C0.418396 10.6721 0.746521 11.0002 1.1684 11.0002H7.9184V17.7502C7.9184 18.1721 8.24652 18.5002 8.6684 18.5002H10.1684C10.5434 18.5002 10.9184 18.1721 10.9184 17.7502V11.0002H17.6684C18.0434 11.0002 18.4184 10.6721 18.4184 10.2502V8.75018C18.4184 8.37518 18.0434 8.00018 17.6684 8.00018Z" fill="white"/>
</svg>
