<?xml version="1.0" encoding="utf-8"?>
<!-- Generator: Adobe Illustrator 23.1.1, SVG Export Plug-In . SVG Version: 6.00 Build 0)  -->
<svg version="1.1" id="Capa_1" xmlns="http://www.w3.org/2000/svg" xmlns:xlink="http://www.w3.org/1999/xlink" x="0px" y="0px"
	 viewBox="0 0 100 100" style="enable-background:new 0 0 100 100;" xml:space="preserve">
<path d="M87.9,35.6c-2.9,0-5.3,1.8-6,4.4H75c-0.4-5.3-2.7-10.1-6.2-13.8l4.9-4.6c1,0.4,2,0.7,3.1,0.7c1.7,0,3.2-0.6,4.5-1.7
	c2.5-2.2,2.5-6,0-8.3c-1.3-1.1-2.8-1.7-4.5-1.7s-3.2,0.6-4.5,1.7c-1.3,1.1-1.8,2.5-1.8,4.2c0,1,0.3,2,0.8,2.8L66.4,24
	c-3.9-3.2-9-5.3-14.6-5.6v-6.6c2.7-0.7,4.6-2.9,4.6-5.6c0-3.2-2.8-5.9-6.3-5.9c-3.5,0-6.5,2.7-6.5,5.9c0,2.7,2,4.9,4.6,5.6v6.5
	c-5.6,0.4-10.7,2.4-14.6,5.6l-4.9-4.6c0.6-0.8,0.8-1.8,0.8-2.8c0-1.5-0.7-3.1-1.8-4.2c-1.3-1.1-2.8-1.7-4.5-1.7
	c-1.7,0-3.2,0.6-4.5,1.7c-2.5,2.2-2.5,6,0,8.3c1.3,1.1,2.8,1.7,4.5,1.7c1.1,0,2.1-0.3,3.1-0.7l4.9,4.6c-3.5,3.6-5.8,8.4-6,13.6h-7.2
	c-0.7-2.5-3.2-4.4-6-4.4c-3.5,0.3-6.3,2.8-6.3,6.2c0,3.2,2.8,5.9,6.3,5.9c2.9,0,5.3-1.8,6-4.4H25c0.4,5.2,2.5,10,6,13.6l-4.8,4.6
	c-1-0.4-2-0.7-3.1-0.7c-1.7,0-3.2,0.6-4.5,1.7c-2.5,2.2-2.5,6,0,8.3c1.3,1.1,2.8,1.7,4.5,1.7s3.2-0.6,4.5-1.7c2-1.8,2.4-4.8,1-7
	l4.9-4.6c1.8,1.4,3.9,2.7,6,3.6c-1.5,1-2.5,2.5-2.5,4.2V79c0,2.8,2.4,5.1,5.5,5.1h2v1.8c0,2.9,2.5,5.3,5.6,5.5v6.7
	c0,1,0.7,1.7,1.7,1.7h18.5c1,0,1.7-0.7,1.7-1.7v-6.7c3.1-0.1,5.6-2.5,5.6-5.5V72.1c1.4-0.1,2.7-0.7,3.6-1.7c2.5-2.2,2.5-6,0-8.3
	c-1-1-2.2-1.5-3.6-1.7v-8.1c0-2.2-1.5-4.1-3.5-4.8c0.4-1.5,0.7-3.1,0.8-4.6h6.9c0.7,2.5,3.2,4.4,6,4.4c3.5,0,6.3-2.7,6.3-5.9
	C94.2,38.1,91.3,35.6,87.9,35.6z M74.7,14.6c0.6-0.4,1.3-0.8,2-0.8s1.5,0.3,2,0.8c1.1,1,1.1,2.8,0,3.8c-0.6,0.4-1.3,0.8-2,0.8
	c-0.3,0-0.6,0-0.7-0.1c-0.4-0.1-1-0.3-1.3-0.7c-0.3-0.3-0.6-0.7-0.7-1.1c0-0.3-0.1-0.4-0.1-0.7C73.9,15.7,74.1,15.1,74.7,14.6z
	 M23.2,19.2c-0.7,0-1.5-0.3-2-0.8c-1.1-1-1.1-2.8,0-3.8c0.6-0.4,1.3-0.8,2-0.8s1.5,0.3,2,0.8c0.6,0.4,0.8,1.1,0.8,1.8
	c0,0.3,0,0.4-0.1,0.7c-0.1,0.4-0.3,0.8-0.7,1.1c-0.3,0.3-0.8,0.6-1.3,0.7C23.8,19.1,23.5,19.2,23.2,19.2z M25.2,68.5
	c-0.6,0.4-1.3,0.8-2,0.8s-1.5-0.3-2-0.8c-1.1-1-1.1-2.8,0-3.8c0.6-0.4,1.3-0.8,2-0.8c0.3,0,0.6,0,0.7,0.1c0.4,0.1,1,0.3,1.3,0.7
	c0.3,0.3,0.6,0.7,0.7,1.1C26.1,66.6,26,67.8,25.2,68.5z M71.3,39.8h-3.8c-0.3-3.4-1.8-6.5-3.9-8.8l2.7-2.5
	C69.2,31.7,70.9,35.6,71.3,39.8z M62.5,48c-0.6,0.3-1,0.6-1.4,0.8c-0.6-0.4-1.3-0.8-2-1.1c-0.1,0-0.3-0.1-0.4-0.1c0,0,0-0.1,0.1-0.1
	c1-1.3,1.7-2.8,2-4.4h3.4C63.9,44.9,63.3,46.6,62.5,48z M44.5,53.7c-1.3-0.4-2.2-1.1-3.4-1.8l2.4-2.2c0.3,0.3,0.7,0.4,1,0.6
	C44.5,50.2,44.5,53.7,44.5,53.7z M57.3,39.8c0.1,0.6,0.3,1.1,0.3,1.7s0,1.1-0.3,1.7c-0.1,0.7-0.6,1.4-1,2.1c-0.3,0.4-0.6,0.8-1,1.1
	v-2v-1.4v-1.8c0-0.4,0-1-0.3-1.4c0-0.3-0.1-0.4-0.3-0.7c-0.6-1-1.3-1.8-2.4-2.4c-0.3-0.1-0.6-0.3-0.8-0.3c-0.6-0.1-1.1-0.3-1.7-0.3
	c-0.6,0-1.3,0.1-1.7,0.3c-0.3,0.1-0.6,0.3-0.8,0.3c-1,0.6-2,1.4-2.4,2.2c-0.1,0.3-0.3,0.4-0.3,0.7c-0.1,0.4-0.3,1-0.3,1.4v2v1.1v2
	c-0.3-0.3-0.7-0.7-1-1.1c-0.4-0.7-0.7-1.3-1-2.1c-0.1-0.6-0.3-1.1-0.3-1.7s0-1.1,0.3-1.7c0.1-0.7,0.6-1.4,1-2.1
	c0.7-1,1.4-1.7,2.4-2.2c0.7-0.4,1.4-0.7,2.2-0.8c0.6-0.1,1.1-0.3,1.7-0.3c0.6,0,1.1,0,1.7,0.3c0.8,0.1,1.5,0.4,2.2,0.8
	c1,0.6,1.8,1.4,2.4,2.2C56.7,38.4,57,39.1,57.3,39.8z M56.5,33.2c-1.4-1-2.9-1.5-4.6-1.8v-3.1c2.7,0.3,5.1,1.3,7,2.8L56.5,33.2z
	 M48.3,31.4c-1.7,0.3-3.2,1-4.6,1.8L41.3,31c2-1.4,4.4-2.4,7-2.8V31.4z M41.2,35.5c-1,1.3-1.7,2.8-2,4.4h-3.4
	c0.3-2.5,1.4-4.8,2.9-6.6L41.2,35.5z M39.2,43.1c0.3,1.7,1,3.1,2,4.4l-2.4,2.2c-1.5-1.8-2.5-4.1-2.9-6.6
	C35.8,43.1,39.2,43.1,39.2,43.1z M60.8,39.8c-0.3-1.7-1-3.1-2-4.4l2.4-2.2c1.5,1.8,2.5,4.1,2.9,6.6H60.8z M63.9,26.2l-2.7,2.5
	c-2.7-2.1-5.9-3.4-9.5-3.6v-3.5C56.3,21.9,60.5,23.5,63.9,26.2z M47.1,6.1c0-1.4,1.3-2.7,2.9-2.7c1.5,0,2.9,1.1,2.9,2.7
	c0,1-0.6,1.8-1.4,2.2c-0.4,0.3-1,0.4-1.4,0.4c-0.6,0-1-0.1-1.4-0.4C47.8,8,47.1,7.1,47.1,6.1z M48.3,21.6v3.5
	c-3.5,0.3-6.9,1.7-9.5,3.6l-2.7-2.5C39.5,23.5,43.7,21.9,48.3,21.6z M33.6,28.5l2.7,2.5c-2.2,2.5-3.5,5.6-3.9,8.8h-3.8
	C28.9,35.6,30.8,31.7,33.6,28.5z M12.1,44.2c-1.5,0-2.9-1.1-2.9-2.7c0-1.4,1.3-2.7,2.9-2.7c1,0,2,0.6,2.5,1.4
	c0.3,0.4,0.4,0.8,0.4,1.4c0,0.4-0.1,1-0.4,1.4C14.1,43.6,13.2,44.2,12.1,44.2z M28.7,43.1h3.8c0.3,3.4,1.8,6.5,3.9,8.8l-2.7,2.5
	C30.8,51.3,28.9,47.4,28.7,43.1z M36.1,56.7l2.7-2.5c1.7,1.3,3.6,2.2,5.8,2.9v3.6C41.4,60.2,38.5,58.6,36.1,56.7z M78.8,64.5
	c1.1,1,1.1,2.8,0,3.8c-0.3,0.3-0.8,0.6-1.3,0.7V64C78.1,64.1,78.5,64.2,78.8,64.5z M74.1,52.6v8.6v0.6v3.8c0,0.1,0,0.1,0,0.3l0,0
	v1.7v4.4v14.3c0,1.3-1,2.2-2.4,2.2h-1.5c-1,0-1.7,0.7-1.7,1.7v6.7h-15v-6.7c0-1-0.7-1.7-1.7-1.7h-1.5c-1.3,0-2.4-1-2.4-2.2v-3.5
	c0,0,0-0.1,0-0.3c-0.1-0.8-0.8-1.4-1.7-1.4h-0.7h-2.9c-1.1,0-2-0.8-2-1.8V66.9c0-1,0.8-1.8,2-1.8s2,0.8,2,1.8v6.9v2.4
	c0,1,0.7,1.7,1.7,1.7c0.3,0,0.7-0.1,1-0.3c0.4-0.3,0.7-0.8,0.7-1.4v-1.4v-3.6v-4.2v-2.2v-3.2v-3.5v-3.2v-3.2v-3.2v-2.5v-2.5v-1.1
	v-0.6c0-0.1,0-0.3,0-0.3c0-0.3,0.1-0.4,0.3-0.6c0.1-0.3,0.3-0.4,0.6-0.6c0.3-0.1,0.6-0.3,0.8-0.4c0.1,0,0.3,0,0.3,0
	c0.1,0,0.3,0,0.3,0c0.3,0,0.6,0.1,0.8,0.4c0.3,0.1,0.4,0.4,0.6,0.6c0.1,0.1,0.1,0.3,0.1,0.6c0,0.1,0,0.3,0,0.3v0.7v1.1v2.5v2.5v3.2
	v1v2.1v3.2v2.4c0,0.4,0.1,0.8,0.6,1.1c0.3,0.3,0.7,0.4,1.3,0.4c0.7,0,1.3-0.4,1.5-1c0.1-0.3,0.1-0.4,0.1-0.7v-2.9v-3.5v-1.3
	c0-1,0.8-1.8,2-1.8c0.7,0,1.4,0.4,1.7,1c0.1,0.3,0.3,0.4,0.3,0.8v2.9v3.9V60c0,1,0.7,1.7,1.7,1.7c1,0,1.7-0.7,1.7-1.7v-2.7v-1.8
	v-2.8v-0.4c0-0.4,0.1-0.7,0.3-1c0.3-0.4,1-0.7,1.5-0.8l0,0c1.1,0,2,0.8,2,1.8v1.5v0.8v3.9v0.7v0.8c0,1,0.7,1.7,1.7,1.7
	c0.3,0,0.6,0,0.7-0.1c0.6-0.3,1-0.8,1-1.4v-2.2v-2.9v-2.5c0-1,0.8-1.8,2-1.8c0.3,0,0.4,0,0.7,0.1C73.6,51.1,74.1,51.8,74.1,52.6z
	 M70.3,47.7c-0.7,0.3-1.4,0.6-2,1.1c-0.6-0.4-1.3-0.8-2.1-1.1c0.7-1.4,1-2.9,1.3-4.6h3.8C71.2,44.7,70.9,46.3,70.3,47.7z M87.9,44.2
	c-1,0-2-0.6-2.5-1.4c-0.3-0.4-0.4-0.8-0.4-1.4c0-0.4,0.1-1,0.4-1.4c0.6-0.8,1.4-1.4,2.5-1.4c1.5,0,2.9,1.1,2.9,2.7
	C90.7,42.9,89.4,44.2,87.9,44.2z"/>
</svg>
