<svg version="1.1" id="Capa_1" xmlns="http://www.w3.org/2000/svg" xmlns:xlink="http://www.w3.org/1999/xlink" x="0px" y="0px" viewBox="0 0 20 20" style="enable-background:new 0 0 20 20;" xml:space="preserve">
<path class="st0" d="M10,0c1.8,0,3.5,0.5,5,1.4c1.5,0.9,2.7,2.1,3.6,3.6c0.9,1.5,1.4,3.2,1.4,5c0,1.8-0.5,3.5-1.4,5
	c-0.9,1.5-2.1,2.8-3.6,3.7c-1.5,0.9-3.2,1.3-5,1.3c-1.8,0-3.5-0.4-5-1.3c-1.5-0.9-2.8-2.1-3.7-3.7C0.4,13.5,0,11.8,0,10
	c0-1.8,0.4-3.5,1.3-5C2.2,3.5,3.5,2.3,5,1.4S8.2,0,10,0z M10,18.1c1.5,0,2.8-0.4,4-1.1c1.2-0.7,2.2-1.7,2.9-2.9
	c0.7-1.2,1.1-2.6,1.1-4c0-1.5-0.4-2.8-1.1-4C16.3,4.8,15.2,3.8,14,3c-1.2-0.7-2.6-1.1-4-1.1C8.5,1.9,7.2,2.3,6,3
	C4.7,3.8,3.7,4.8,3,6c-0.7,1.3-1.1,2.6-1.1,4c0,1.5,0.4,2.8,1.1,4C3.7,15.3,4.7,16.3,6,17C7.2,17.7,8.5,18.1,10,18.1z M10,4.4
	C9.5,4.4,9.1,4.6,8.8,5C8.5,5.3,8.3,5.7,8.3,6.1c0,0.5,0.2,0.9,0.5,1.2C9.1,7.7,9.5,7.8,10,7.8c0.4,0,0.8-0.2,1.2-0.5
	c0.3-0.3,0.5-0.7,0.5-1.2c0-0.4-0.2-0.8-0.5-1.2C10.8,4.6,10.4,4.4,10,4.4z M12.3,14.7v-1c0-0.1-0.1-0.2-0.2-0.3
	c-0.1-0.1-0.2-0.2-0.3-0.2h-0.5v-4c0-0.1-0.1-0.2-0.2-0.3c-0.1-0.1-0.2-0.2-0.3-0.2H8.2c-0.2,0-0.3,0.1-0.4,0.2
	C7.8,9,7.7,9.1,7.7,9.2v1c0,0.2,0,0.3,0.1,0.4c0.1,0.1,0.2,0.1,0.4,0.1h0.5v2.6H8.2c-0.2,0-0.3,0.1-0.4,0.2
	c-0.1,0.1-0.1,0.2-0.1,0.3v1c0,0.2,0,0.3,0.1,0.4c0.1,0.1,0.2,0.1,0.4,0.1h3.5c0.1,0,0.2,0,0.3-0.1C12.2,15,12.3,14.8,12.3,14.7z"/>
</svg>