<?xml version="1.0" encoding="utf-8"?>
<!-- Generator: Adobe Illustrator 23.1.1, SVG Export Plug-In . SVG Version: 6.00 Build 0)  -->
<svg version="1.1" id="Capa_1" xmlns="http://www.w3.org/2000/svg" xmlns:xlink="http://www.w3.org/1999/xlink" x="0px" y="0px"
	 viewBox="0 0 200 200" style="enable-background:new 0 0 200 200;" xml:space="preserve">
<style type="text/css">
	.st0{fill:#540AE5;}
</style>
<path class="st0" d="M122,108.9h-12.5v-2.5c0.4-0.2,0.7-0.4,1.1-0.6c0.1-0.1,0.3-0.2,0.4-0.2c0.4-0.2,0.7-0.5,1-0.7
	c0.2-0.1,0.3-0.2,0.5-0.3c0.3-0.2,0.6-0.5,0.9-0.8c0.2-0.1,0.3-0.3,0.5-0.4c0.3-0.3,0.6-0.5,0.8-0.8c0.2-0.2,0.3-0.3,0.5-0.5
	c0.2-0.3,0.5-0.5,0.7-0.8c0.2-0.2,0.3-0.4,0.5-0.6c0.3-0.5,0.7-0.9,1-1.4c0.2-0.3,0.4-0.6,0.5-0.9c0.1-0.2,0.3-0.5,0.4-0.7
	c0.2-0.3,0.3-0.6,0.5-0.9c0.1-0.2,0.2-0.5,0.3-0.8c0.1-0.3,0.3-0.7,0.4-1c0.1-0.3,0.2-0.5,0.2-0.8c0.1-0.4,0.2-0.7,0.3-1.1
	c0.1-0.2,0.1-0.5,0.2-0.7c0.1-0.4,0.1-0.8,0.2-1.3c0-0.2,0.1-0.4,0.1-0.6c0.1-0.6,0.1-1.3,0.1-2v-12c0-11.3-9.2-20.5-20.5-20.5
	S79.5,65,79.5,76.3v12c0,0.7,0,1.3,0.1,2c0,0.2,0.1,0.4,0.1,0.6c0.1,0.4,0.1,0.9,0.2,1.3c0,0.2,0.1,0.5,0.2,0.7
	c0.1,0.4,0.2,0.7,0.3,1.1c0.1,0.3,0.2,0.5,0.2,0.8c0.1,0.3,0.2,0.7,0.4,1c0.1,0.3,0.2,0.5,0.3,0.8c0.1,0.3,0.3,0.6,0.5,0.9
	c0.1,0.2,0.2,0.5,0.4,0.7c0.2,0.3,0.4,0.6,0.5,0.9c0.3,0.5,0.6,1,1,1.4c0.2,0.2,0.3,0.4,0.5,0.6c0.2,0.3,0.5,0.6,0.7,0.8
	c0.2,0.2,0.3,0.3,0.5,0.5c0.3,0.3,0.5,0.5,0.8,0.8c0.2,0.1,0.3,0.3,0.5,0.4c0.3,0.3,0.6,0.5,0.9,0.8c0.2,0.1,0.3,0.2,0.5,0.3
	c0.3,0.2,0.7,0.5,1,0.7c0.1,0.1,0.3,0.2,0.4,0.2c0.4,0.2,0.7,0.4,1.1,0.6v2.5H78c-6.9,0-12.5,5.6-12.5,12.5v24
	c0,1.9,1.6,3.5,3.5,3.5h62c1.9,0,3.5-1.6,3.5-3.5v-24C134.5,114.5,128.9,108.9,122,108.9z M89.9,100c-0.2-0.2-0.5-0.4-0.7-0.7
	c-0.1-0.1-0.3-0.3-0.4-0.4c-0.2-0.2-0.4-0.4-0.5-0.6c-0.1-0.2-0.3-0.3-0.4-0.5c-0.2-0.2-0.3-0.4-0.5-0.6c-0.1-0.2-0.2-0.3-0.3-0.5
	c-0.2-0.3-0.3-0.5-0.5-0.8c-0.1-0.1-0.2-0.3-0.2-0.4c-0.2-0.4-0.4-0.8-0.6-1.2c0-0.1-0.1-0.2-0.1-0.3c-0.1-0.3-0.2-0.6-0.4-1
	c-0.1-0.2-0.1-0.3-0.1-0.5C85,92.3,85,92,84.9,91.7c0-0.2-0.1-0.3-0.1-0.5c-0.1-0.3-0.1-0.6-0.1-1c0-0.2,0-0.3-0.1-0.5
	c0-0.5-0.1-1-0.1-1.5v-12c0-8.5,7-15.5,15.5-15.5s15.5,7,15.5,15.5v12c0,0.5,0,1-0.1,1.5c0,0.2,0,0.3-0.1,0.5c0,0.3-0.1,0.7-0.1,1
	c0,0.2-0.1,0.3-0.1,0.5c-0.1,0.3-0.1,0.6-0.2,0.9c0,0.2-0.1,0.3-0.1,0.5c-0.1,0.3-0.2,0.6-0.4,1c0,0.1-0.1,0.2-0.1,0.3
	c-0.2,0.4-0.4,0.8-0.6,1.2c-0.1,0.1-0.1,0.3-0.2,0.4c-0.2,0.3-0.3,0.5-0.5,0.8c-0.1,0.2-0.2,0.3-0.3,0.5c-0.2,0.2-0.3,0.4-0.5,0.6
	c-0.1,0.2-0.2,0.3-0.4,0.5c-0.2,0.2-0.4,0.4-0.5,0.6c-0.1,0.1-0.3,0.3-0.4,0.4c-0.2,0.2-0.5,0.4-0.7,0.7c-0.2,0.2-0.4,0.3-0.6,0.5
	c-0.4,0.3-0.7,0.5-1.1,0.8c0,0-0.1,0-0.1,0.1c-0.3,0.2-0.7,0.4-1,0.6c-0.1,0-0.1,0.1-0.2,0.1c0,0,0,0,0,0c-0.3,0.2-0.7,0.3-1,0.5
	c-0.1,0-0.2,0.1-0.3,0.1c0,0-0.1,0-0.1,0.1c-0.4,0.1-0.8,0.3-1.2,0.4c-1.4,0.4-2.9,0.7-4.5,0.7s-3.1-0.2-4.5-0.7
	c-0.4-0.1-0.8-0.3-1.2-0.4c0,0-0.1,0-0.1-0.1c-0.1,0-0.2-0.1-0.3-0.1c-0.3-0.1-0.7-0.3-1-0.5c0,0,0,0,0,0c-0.1,0-0.1-0.1-0.2-0.1
	c-0.3-0.2-0.7-0.4-1-0.6c0,0-0.1,0-0.1-0.1c-0.4-0.2-0.7-0.5-1.1-0.8C90.3,100.3,90.1,100.1,89.9,100z M104.5,108.2v0.6v5v3
	c0,2.5-2,4.5-4.5,4.5s-4.5-2-4.5-4.5v-3v-5v-0.6c1.5,0.3,3,0.5,4.5,0.5S103,108.6,104.5,108.2z M129.5,143.9h-59v-22.5
	c0-4.1,3.4-7.5,7.5-7.5h12.5v3c0,5.2,4.3,9.5,9.5,9.5s9.5-4.3,9.5-9.5v-3H122c4.1,0,7.5,3.4,7.5,7.5V143.9z"/>
<g>
	<path class="st0" d="M109.8,167.7c-1-1-2.6-1-3.5,0L100,174l-6.2-6.2c-1-1-2.6-1-3.5,0c-1,1-1,2.6,0,3.5l6.2,6.2l-6.2,6.2
		c-1,1-1,2.6,0,3.5c0.5,0.5,1.1,0.7,1.8,0.7s1.3-0.2,1.8-0.7l6.2-6.2l6.2,6.2c0.5,0.5,1.1,0.7,1.8,0.7s1.3-0.2,1.8-0.7
		c1-1,1-2.6,0-3.5l-6.2-6.2l6.2-6.2C110.7,170.3,110.7,168.7,109.8,167.7z"/>
	<path class="st0" d="M89.7,32h20.5c0.9,0,1.7-0.5,2.2-1.2s0.5-1.7,0-2.5l-10.3-18C101.7,9.5,100.9,9,100,9c0,0,0,0,0,0
		c-0.9,0-1.7,0.5-2.2,1.3l-10.2,18c-0.4,0.8-0.4,1.7,0,2.5C88,31.5,88.8,32,89.7,32z M100,16.5l6,10.5H94L100,16.5z"/>
	<path class="st0" d="M30.5,89.5h-16c-1.4,0-2.5,1.1-2.5,2.5v16c0,1.4,1.1,2.5,2.5,2.5h16c1.4,0,2.5-1.1,2.5-2.5V92
		C33,90.6,31.9,89.5,30.5,89.5z M28,105.5H17v-11h11V105.5z"/>
	<path class="st0" d="M177.5,77.5c-0.3,0-0.5,0-0.7,0c-7.6-26.1-28.2-46.6-54.3-54.3c0-0.2,0-0.5,0-0.7C122.5,10.1,112.4,0,100,0
		C87.6,0,77.5,10.1,77.5,22.5c0,0.3,0,0.5,0,0.7c-26.1,7.6-46.6,28.2-54.3,54.3c-0.2,0-0.5,0-0.7,0C10.1,77.5,0,87.6,0,100
		s10.1,22.5,22.5,22.5c0.3,0,0.5,0,0.7,0c7.6,26.1,28.2,46.6,54.3,54.3c0,0.2,0,0.5,0,0.7c0,12.4,10.1,22.5,22.5,22.5
		c12.4,0,22.5-10.1,22.5-22.5c0-0.2,0-0.5,0-0.7c26.1-7.6,46.6-28.2,54.3-54.3c0.2,0,0.5,0,0.7,0c12.4,0,22.5-10.1,22.5-22.5
		S189.9,77.5,177.5,77.5z M100,5c9.6,0,17.5,7.9,17.5,17.5c0,0.5,0,1-0.1,1.5c0,0.2,0,0.4-0.1,0.6c0,0.2-0.1,0.4-0.1,0.6
		c-0.1,0.6-0.2,1.2-0.4,1.7c-2,7.5-8.8,13.1-16.9,13.1s-14.9-5.6-16.9-13.1c-0.1-0.6-0.3-1.1-0.4-1.7c0-0.2-0.1-0.4-0.1-0.6
		c0-0.2,0-0.4-0.1-0.6c0-0.5-0.1-1-0.1-1.5C82.5,12.9,90.4,5,100,5z M25.2,117.3c-0.2,0-0.4,0.1-0.6,0.1c-0.2,0-0.4,0-0.6,0.1
		c-0.5,0-1,0.1-1.5,0.1c-0.2,0-0.4,0-0.6,0C12.6,117.2,5,109.5,5,100s7.6-17.2,16.9-17.5c0.2,0,0.4,0,0.6,0c0.5,0,1,0,1.5,0.1
		c0.2,0,0.4,0,0.6,0.1c0.2,0,0.4,0.1,0.6,0.1c0.6,0.1,1.2,0.2,1.7,0.4c7.5,2,13.1,8.8,13.1,16.9s-5.6,14.9-13.1,16.9
		C26.4,117.1,25.8,117.2,25.2,117.3z M100,195c-9.6,0-17.5-7.9-17.5-17.5c0-0.5,0-1,0.1-1.5c0-0.2,0-0.4,0.1-0.6
		c0-0.2,0.1-0.4,0.1-0.6c0.1-0.6,0.2-1.2,0.4-1.7l0,0c2-7.5,8.8-13.1,16.9-13.1c8.1,0,14.9,5.6,16.9,13.1c0.1,0.6,0.3,1.1,0.4,1.7
		c0,0.2,0.1,0.4,0.1,0.6c0,0.2,0,0.4,0.1,0.6c0,0.5,0.1,1,0.1,1.5C117.5,187.1,109.6,195,100,195z M121.8,171.8
		c-2.5-9.6-11.3-16.8-21.8-16.8c-10.4,0-19.2,7.1-21.8,16.8c-23.9-7.3-42.7-26.1-50-50C37.9,119.2,45,110.4,45,100
		s-7.1-19.2-16.8-21.8c7.3-23.9,26.1-42.7,50-50C80.8,37.9,89.6,45,100,45c10.4,0,19.2-7.1,21.8-16.8c23.9,7.3,42.7,26.1,50,50
		C162.1,80.8,155,89.6,155,100c0,10.4,7.1,19.2,16.8,21.8C164.5,145.6,145.6,164.5,121.8,171.8z M178.1,117.5c-0.2,0-0.4,0-0.6,0
		c-0.5,0-1,0-1.5-0.1c-0.2,0-0.4,0-0.6-0.1c-0.2,0-0.4-0.1-0.6-0.1c-0.6-0.1-1.2-0.2-1.7-0.4c-7.5-2-13.1-8.8-13.1-16.9
		s5.6-14.9,13.1-16.9c0.6-0.1,1.1-0.3,1.7-0.4c0.2,0,0.4-0.1,0.6-0.1c0.2,0,0.4,0,0.6-0.1c0.5,0,1-0.1,1.5-0.1c0.2,0,0.4,0,0.6,0
		c9.4,0.3,16.9,8,16.9,17.5S187.4,117.2,178.1,117.5z"/>
	<path class="st0" d="M177.5,87.5c-6.9,0-12.5,5.6-12.5,12.5s5.6,12.5,12.5,12.5S190,106.9,190,100S184.4,87.5,177.5,87.5z
		 M177.5,107.5c-4.1,0-7.5-3.4-7.5-7.5s3.4-7.5,7.5-7.5s7.5,3.4,7.5,7.5S181.6,107.5,177.5,107.5z"/>
</g>
</svg>
