<svg version="1.1" id="Capa_1" xmlns="http://www.w3.org/2000/svg" xmlns:xlink="http://www.w3.org/1999/xlink" x="0px" y="0px" viewBox="0 0 68 68" style="enable-background:new 0 0 68 68;" xml:space="preserve">
<g>
	<path d="M36.7,38.3c0,0.4,0.1,0.7,0.4,1c0.5,0.5,1.4,0.5,1.9,0c1.4-1.4,2.1-3.2,2.1-5.1S40.4,30.3,39,29c-1.4-1.4-3.2-2.1-5.1-2.1
		c-1.9,0-3.8,0.8-5.1,2.1c-2.8,2.8-2.8,7.4,0,10.3c0.8,0.8,1.9,1.5,3.1,1.8c0.1,0,0.3,0.1,0.4,0.1c0.6,0,1.1-0.4,1.3-1
		c0.2-0.7-0.2-1.5-0.9-1.7c-0.7-0.2-1.4-0.6-1.9-1.1c-1.8-1.8-1.8-4.6,0-6.4c0.8-0.8,2-1.3,3.2-1.3s2.4,0.5,3.2,1.3
		c1.8,1.8,1.8,4.6,0,6.3C36.8,37.5,36.7,37.9,36.7,38.3z"/>
	<path d="M46.3,24.7C46.3,24.7,46.3,24.7,46.3,24.7c-0.8,0-1.6-0.3-2.1-0.9l0,0c-0.5-0.5-1.4-0.5-1.9,0c-0.5,0.5-0.5,1.4,0,1.9
		c1.1,1.1,2.5,1.7,4.1,1.7c1.5,0,3-0.6,4.1-1.7c2.3-2.3,2.3-5.9,0-8.2c-2.2-2.2-5.9-2.2-8.2,0c-0.7,0.7-1.2,1.6-1.5,2.6
		c-0.2,0.7,0.3,1.5,1,1.7c0.4,0.1,0.7,0.1,1-0.1c0.3-0.2,0.6-0.5,0.6-0.9c0.1-0.5,0.4-1,0.8-1.4c1.2-1.2,3.1-1.2,4.3,0
		c1.2,1.2,1.2,3.1,0,4.3C47.9,24.4,47.1,24.7,46.3,24.7z"/>
	<path d="M67.4,2c0-0.2,0-0.3-0.1-0.4l0,0c0-0.1-0.1-0.2-0.1-0.2c-0.3-0.4-0.7-0.7-1.2-0.7c0,0,0,0,0,0C62.7,0.7,46,1.4,31.7,12
		L15,13.6c-0.3,0-0.6,0.2-0.8,0.4L1,26.8c-0.4,0.4-0.5,0.9-0.4,1.3c0.1,0.5,0.5,0.9,1,1L16,32.5c-0.6,1.3-1.1,2.7-1.6,4.2l-8.2,3.4
		c-0.4,0.2-0.7,0.5-0.8,1c-0.1,0.4,0.1,0.9,0.4,1.2l20,20c0.3,0.3,0.8,0.5,1.2,0.4c0.5-0.1,0.8-0.4,1-0.8l3.4-8.2
		c1.3-0.4,2.6-0.9,4.2-1.6l2,8.5c0.1,0.6,0.7,1.1,1.3,1.1c0.1,0,0.2,0,0.3,0c0.4-0.1,0.7-0.3,0.9-0.6c0.2-0.3,0.3-0.7,0.2-1l-2.1-9
		c5.7-2.7,10.7-6.4,14.8-10.9l-1.2,12.2L39.2,65c-0.3,0.3-0.4,0.6-0.4,1c0,0.4,0.2,0.7,0.4,1c0.3,0.3,0.6,0.4,1,0.4
		c0.4,0,0.7-0.1,1-0.4L54,53.8c0.2-0.2,0.4-0.5,0.4-0.8L56,35.9c0.1-0.6-0.3-1.2-0.9-1.4c-0.6-0.2-1.2,0-1.6,0.5
		C47.7,42.6,39.8,48,30,51.1l0,0c-0.5,0.1-0.8,0.4-1,0.8l-2.8,6.9l-17-17l6.1-2.5l9.9,9.9c0.5,0.5,1.4,0.5,1.9,0
		c0.5-0.5,0.5-1.4,0-1.9l-9.9-9.9c1.4-4.3,3.3-8.3,5.6-11.8c0.2-0.3,0.3-0.7,0.2-1c-0.1-0.4-0.3-0.7-0.6-0.9c-0.3-0.2-0.7-0.3-1-0.2
		c-0.4,0.1-0.7,0.3-0.9,0.6c-1.2,1.9-2.3,3.9-3.3,5.9L4.7,27.1l11-10.7L28,15.1c-1.4,1.3-2.7,2.6-3.9,4c-0.5,0.6-0.4,1.4,0.1,1.9
		c0.6,0.5,1.5,0.4,1.9-0.1C39.4,5.5,59.7,3.6,64.6,3.4c-0.1,2.5-0.6,8-2.5,14.4l-9.6-9.6c-0.5-0.5-1.4-0.5-1.9,0
		c-0.5,0.5-0.5,1.4,0,1.9l10.6,10.6C60,24,58.5,27.1,56.9,30c-0.4,0.7-0.2,1.5,0.5,1.9c0.6,0.4,1.5,0.2,1.9-0.5
		C67.6,17.1,67.4,2.3,67.4,2z"/>
	<path d="M12.5,55.5L12.5,55.5c-0.5-0.5-1.4-0.5-2,0L1,65c-0.5,0.5-0.5,1.4,0,1.9c0.2,0.3,0.6,0.4,1,0.4c0.4,0,0.7-0.1,1-0.4
		l9.5-9.5C13,56.9,13,56.1,12.5,55.5z"/>
	<path d="M2,56.1c0.4,0,0.7-0.1,1-0.4l5.7-5.7c0.5-0.5,0.5-1.4,0-1.9c-0.5-0.5-1.4-0.5-1.9,0L1,53.7c-0.5,0.5-0.5,1.4,0,1.9
		C1.3,55.9,1.6,56.1,2,56.1z"/>
	<path d="M19.1,58.9c-0.4,0-0.7,0.1-1,0.4L12.3,65c-0.3,0.3-0.4,0.6-0.4,1s0.1,0.7,0.4,1c0.2,0.3,0.6,0.4,1,0.4c0.4,0,0.7-0.1,1-0.4
		l5.7-5.7c0.5-0.5,0.5-1.4,0-1.9C19.8,59,19.5,58.9,19.1,58.9z"/>
</g>
</svg>
