<?xml version="1.0" encoding="utf-8"?>
<!-- Generator: Adobe Illustrator 23.1.1, SVG Export Plug-In . SVG Version: 6.00 Build 0)  -->
<svg version="1.1" id="Capa_1" xmlns="http://www.w3.org/2000/svg" xmlns:xlink="http://www.w3.org/1999/xlink" x="0px" y="0px"
	 viewBox="0 0 100 100" style="enable-background:new 0 0 100 100;" xml:space="preserve">
<path d="M77,31.1c-10.9,0-19.7,8.7-19.7,19.3c0,3.8,1.1,7.3,3.1,10.2l-8.8,6.4v-28c0,0,0,0,0.1,0c0.4,0,0.8,0,1.3-0.1H53
	c0.4,0,0.8-0.1,1.3-0.3c0.1,0,0.3,0,0.4-0.1c0.4-0.1,0.7-0.1,1-0.3c0.1,0,0.3,0,0.4-0.1c0.3-0.1,0.6-0.1,1-0.4
	c0.1,0,0.3-0.1,0.4-0.1c0.3-0.1,0.6-0.3,1-0.4c0.1-0.1,0.3-0.1,0.6-0.3c0.3-0.1,0.6-0.3,0.7-0.4c0.1-0.1,0.3-0.1,0.4-0.3
	c0.3-0.1,0.6-0.4,1-0.6c0,0,0.1,0,0.1-0.1l0,0c5.2-3.5,8.5-9.2,8.5-15.8C69.8,9,61,0.3,50.1,0.3S30.3,9,30.3,19.6
	c0,6.6,3.4,12.3,8.5,15.8l0,0c0,0,0.1,0,0.1,0.1c0.3,0.1,0.6,0.4,1,0.6c0.1,0.1,0.3,0.1,0.4,0.3c0.3,0.1,0.6,0.3,0.7,0.4
	c0.1,0.1,0.3,0.1,0.6,0.3c0.3,0.1,0.6,0.3,1,0.4c0.1,0,0.3,0.1,0.4,0.1c0.3,0.1,0.6,0.3,1,0.4c0.1,0,0.3,0.1,0.4,0.1
	c0.4,0.1,0.7,0.1,1,0.3c0.1,0,0.3,0,0.4,0.1c0.4,0.1,0.8,0.1,1.3,0.3h0.1c0.4,0,0.8,0.1,1.3,0.1c0,0,0,0,0.1,0v28l-8.8-6.4
	c2-2.9,3.1-6.4,3.1-10.2c0-10.6-8.8-19.3-19.7-19.3C12,31.1,3,39.8,3,50.4c0,6.6,3.4,12.3,8.5,15.8l0,0c0,0,0.1,0,0.1,0.1
	c0.3,0.1,0.6,0.4,1,0.6c0.1,0.1,0.3,0.3,0.4,0.3c0.3,0.1,0.6,0.3,0.7,0.4c0.1,0.1,0.3,0.1,0.6,0.3s0.6,0.3,1,0.4
	c0.1,0,0.3,0.1,0.4,0.1c0.3,0.1,0.6,0.3,1,0.4c0.1,0,0.3,0.1,0.4,0.1c0.4,0.1,0.7,0.1,1,0.3c0.1,0,0.3,0,0.4,0.1
	c0.4,0.1,0.8,0.1,1.3,0.3H20c0.4,0,0.8,0.1,1.3,0.1c0.1,0,0.1,0,0.4,0c0.4,0,0.8,0,1.4,0s0.8,0,1.4,0c0.1,0,0.1,0,0.4,0
	c0.4,0,0.8,0,1.3-0.1h0.1c0.4,0,0.8-0.1,1.3-0.3c0.1,0,0.3,0,0.4-0.1c0.4-0.1,0.7-0.1,1-0.3c0.1,0,0.3,0,0.4-0.1
	c0.3-0.1,0.6-0.1,1-0.4c0.1,0,0.3-0.1,0.4-0.1c0.3-0.1,0.6-0.3,1-0.4c0.1-0.1,0.3-0.1,0.6-0.3c0.3-0.1,0.6-0.3,0.7-0.4
	c0.1-0.1,0.3-0.1,0.4-0.3c0.3-0.1,0.6-0.4,1-0.6c0,0,0.1,0,0.1-0.1l0,0c1.3-1,2.5-2,3.6-3.2l10.6,7.7v3.8H35.4
	c-0.8,0-1.5,0.7-1.5,1.5V80c-2.7,0.7-4.6,3.1-4.6,5.9c0,3.4,2.8,6,6.2,6c3.5,0,6.2-2.7,6.2-6c0-2.8-2-5.2-4.6-5.9v-2.4h11.8v10.5
	c-2.7,0.7-4.6,3.1-4.6,5.9c0,3.4,2.8,6,6.2,6c3.5,0,6.2-2.7,6.2-6c0-2.8-2-5.2-4.6-5.9V77.6h11.5V80c-2.7,0.7-4.6,3.1-4.6,5.9
	c0,3.4,2.8,6,6.2,6c3.4,0,6.2-2.7,6.2-6c0-2.8-2-5.2-4.6-5.9v-3.9c0-0.8-0.7-1.5-1.5-1.5H51.5v-3.8L62.1,63c1,1.1,2.2,2.2,3.6,3.2
	l0,0c0,0,0.1,0,0.1,0.1c0.3,0.1,0.6,0.4,1,0.6c0.1,0.1,0.3,0.1,0.4,0.3c0.3,0.1,0.4,0.3,0.7,0.4c0.1,0.1,0.4,0.1,0.6,0.3
	c0.3,0.1,0.6,0.3,1,0.4c0.1,0,0.3,0.1,0.4,0.1c0.3,0.1,0.6,0.3,1,0.4c0.1,0,0.3,0.1,0.4,0.1c0.4,0.1,0.7,0.1,1,0.3
	c0.1,0,0.3,0,0.4,0.1c0.4,0.1,0.8,0.1,1.3,0.3h0.1c0.4,0,0.8,0.1,1.3,0.1c0.1,0,0.1,0,0.4,0c0.4,0,0.8,0,1.4,0s0.8,0,1.4,0
	c0.1,0,0.1,0,0.4,0c0.4,0,0.8,0,1.3-0.1h0.1c0.4,0,0.8-0.1,1.3-0.3c0.1,0,0.3,0,0.4-0.1c0.4-0.1,0.7-0.1,1-0.3c0.1,0,0.3,0,0.4-0.1
	c0.3-0.1,0.6-0.1,1-0.4c0.1,0,0.3-0.1,0.4-0.1c0.3-0.1,0.6-0.3,1-0.4c0.1-0.1,0.3-0.1,0.6-0.3c0.3-0.1,0.6-0.3,0.7-0.4
	c0.1-0.1,0.3-0.1,0.4-0.3c0.3-0.1,0.6-0.4,1-0.6c0,0,0.1,0,0.1-0.1l0,0c5.2-3.5,8.5-9.2,8.5-15.8C96.8,39.8,87.9,31.1,77,31.1z
	 M31.5,64.3c-0.3,0.1-0.6,0.3-0.7,0.4c-0.1,0-0.3,0.1-0.4,0.1c-0.1,0.1-0.3,0.1-0.4,0.3c-0.1,0-0.3,0.1-0.4,0.1
	c-0.3,0.1-0.6,0.1-0.8,0.3c-0.1,0-0.3,0.1-0.4,0.1c-0.1,0-0.4,0.1-0.6,0.1s-0.3,0-0.4,0.1c-0.1,0-0.4,0.1-0.7,0.1
	c-0.1,0-0.1,0-0.3,0c-0.3,0-0.6,0.1-1,0.1c-0.1,0-0.1,0-0.3,0c-0.3,0-0.6,0-0.8,0.1c-0.1,0-0.1,0-0.3,0c-0.4,0-0.7,0-1,0
	c-0.4,0-0.7,0-1,0c-0.1,0-0.1,0-0.3,0c-0.3,0-0.6,0-0.8-0.1c-0.1,0-0.1,0-0.3,0c-0.3,0-0.6-0.1-1-0.1c-0.1,0-0.1,0-0.3,0
	S18.9,66,18.6,66c-0.1,0-0.3,0-0.4-0.1c-0.1,0-0.4-0.1-0.6-0.1s-0.3-0.1-0.4-0.1c-0.3-0.1-0.6-0.1-0.8-0.3c-0.1,0-0.3-0.1-0.4-0.1
	c-0.1,0-0.3-0.1-0.4-0.3c-0.1,0-0.3-0.1-0.4-0.1c-0.4-0.1-0.7-0.3-0.8-0.4c0,0,0,0-0.1,0V57c0-0.6,0.4-1,1-1H19
	c0.1,2,1.8,3.5,3.8,3.5s3.6-1.5,3.8-3.5H28h2.7c0.6,0,1,0.4,1,1v1.7L31.5,64.3C31.6,64.3,31.5,64.3,31.5,64.3z M22.1,55.9v-2
	c0.1,0,0.4,0,0.7,0s0.4,0,0.7,0v2c0,0.1,0,0.1,0,0.1c-0.1,0.3-0.4,0.4-0.7,0.4s-0.6-0.1-0.7-0.4C22.2,56,22.1,55.9,22.1,55.9z
	 M27.3,46.6c0,1-0.3,1.8-0.8,2.4c-0.3,0.4-0.8,0.8-1.3,1.1H25v0.1c-0.7,0.4-1.4,0.6-2.2,0.6c-0.6,0-1-0.1-1.5-0.3
	c-0.3-0.1-0.4-0.1-0.7-0.4c-0.6-0.3-1-0.7-1.4-1.3c-0.6-0.7-0.8-1.5-0.8-2.4v-3.2c0-2.4,2-4.3,4.5-4.3s4.5,2,4.5,4.3
	C27.3,43.3,27.3,46.6,27.3,46.6z M34.7,61.9v-0.8v-3.8v-0.1c0-2.2-1.8-3.9-4.1-3.9h-1.7h-2.4v-0.1c0.4-0.3,0.8-0.6,1.1-0.8
	c1.5-1.4,2.5-3.4,2.5-5.6v-3.2c0-4.1-3.4-7.4-7.6-7.4s-7.6,3.4-7.6,7.4v3.2c0,2.7,1.5,5,3.6,6.3v0.1h-3.6c-2.2,0-4.1,1.8-4.1,3.9
	v4.8C8.1,59,6.3,54.9,6.3,50.4c0-9,7.4-16.2,16.7-16.2s16.7,7.3,16.7,16.2c0,3.1-0.8,6-2.4,8.4c-0.6,0.8-1.3,1.7-1.8,2.4
	C35.1,61.5,34.8,61.6,34.7,61.9z M38.2,86c0,1.7-1.4,2.9-3.1,2.9c-1.7,0-3.1-1.3-3.1-2.9c0-1.7,1.4-2.9,3.1-2.9
	C36.8,82.9,38.2,84.3,38.2,86z M53,94.1c0,1.7-1.4,2.9-3.1,2.9c-1.7,0-3.1-1.3-3.1-2.9c0-1.7,1.4-2.9,3.1-2.9
	C51.6,91,53,92.4,53,94.1z M67.9,86c0,1.7-1.4,2.9-3.1,2.9c-1.7,0-3.1-1.3-3.1-2.9c0-1.7,1.4-2.9,3.1-2.9
	C66.5,82.9,67.9,84.3,67.9,86z M49.2,25.2v-2c0.1,0,0.4,0,0.7,0s0.4,0,0.7,0v2c0,0.1,0,0.1,0,0.1c-0.1,0.3-0.4,0.6-0.7,0.6
	s-0.6-0.1-0.7-0.4C49.2,25.5,49.2,25.4,49.2,25.2z M53.6,18.5c-0.4,0.6-0.8,1-1.4,1.3c-0.1,0.1-0.4,0.3-0.7,0.4
	c-0.4,0.1-1,0.3-1.5,0.3c-0.6,0-1.1-0.1-1.5-0.3C48.1,20,48,20,47.7,19.8c-0.6-0.3-1-0.7-1.4-1.3c-0.6-0.7-0.8-1.5-0.8-2.4v-3.2
	c0-2.4,2-4.3,4.5-4.3c2.4,0,4.5,2,4.5,4.3v3.2C54.3,17,54,17.8,53.6,18.5z M58.5,33.8c-0.3,0.1-0.6,0.3-0.8,0.4
	c-0.1,0-0.3,0.1-0.4,0.1c-0.1,0.1-0.3,0.1-0.4,0.3c-0.1,0-0.3,0.1-0.4,0.1c-0.3,0.1-0.6,0.1-0.8,0.3c-0.1,0-0.3,0.1-0.4,0.1
	s-0.4,0.1-0.6,0.1c-0.1,0-0.3,0-0.4,0.1c-0.1,0-0.4,0.1-0.7,0.1c-0.1,0-0.1,0-0.3,0c-0.3,0-0.6,0.1-1,0.1c-0.1,0-0.1,0-0.3,0
	c-0.1,0-0.4,0-0.6,0v-7.3c1.3-0.6,2.2-1.8,2.2-3.2h4.1c0.6,0,1,0.4,1,1v7.6C58.6,33.8,58.6,33.8,58.5,33.8z M33.3,19.9
	c0-9,7.4-16.2,16.7-16.2s16.7,7.3,16.7,16.2c0,4.5-1.8,8.4-4.8,11.3v-4.8c0-2.2-1.8-3.9-4.1-3.9h-3.9v-0.1c2.2-1.3,3.6-3.6,3.6-6.3
	v-3.2c0-4.1-3.4-7.4-7.6-7.4s-7.6,3.4-7.6,7.4v3.2c0,2.7,1.5,5,3.6,6.3v0.1h-3.9c-2.2,0-4.1,1.8-4.1,3.9v4.8
	C35.1,28.3,33.3,24.4,33.3,19.9z M47.6,36c-0.3,0-0.6-0.1-1-0.1c-0.1,0-0.1,0-0.3,0c-0.1,0-0.4-0.1-0.7-0.1c-0.1,0-0.3,0-0.4-0.1
	c-0.1,0-0.4-0.1-0.6-0.1s-0.3-0.1-0.4-0.1c-0.4-0.3-0.6-0.4-0.8-0.4c-0.1,0-0.3-0.1-0.4-0.1s-0.3-0.1-0.4-0.3
	c-0.1,0-0.3-0.1-0.4-0.1c-0.3-0.1-0.6-0.3-0.7-0.4c0,0,0,0-0.1,0v-7.4c0-0.6,0.4-1,1-1h3.9c0.1,1.4,1,2.7,2.2,3.2V36
	c-0.1,0-0.4,0-0.6,0C47.7,36,47.6,36,47.6,36z M85.6,64.3c-0.3,0.1-0.6,0.3-0.8,0.4c-0.1,0-0.3,0.1-0.4,0.1C84.2,65,84.1,65,84,65.1
	c-0.1,0-0.3,0.1-0.4,0.1c-0.3,0.1-0.6,0.1-0.8,0.3c-0.1,0-0.3,0.1-0.4,0.1c-0.1,0-0.4,0.1-0.6,0.1c-0.1,0-0.3,0-0.4,0.1
	c-0.1,0-0.4,0.1-0.7,0.1c-0.1,0-0.1,0-0.3,0c-0.3,0-0.6,0.1-1,0.1c-0.1,0-0.1,0-0.3,0c-0.3,0-0.6,0-0.8,0.1c-0.1,0-0.1,0-0.3,0
	c-0.4,0-0.7,0-1,0c-0.4,0-0.7,0-1,0c-0.1,0-0.1,0-0.3,0c-0.3,0-0.6,0-0.8-0.1c-0.1,0-0.1,0-0.3,0c-0.3,0-0.6-0.1-1-0.1
	c-0.1,0-0.1,0-0.3,0c-0.1,0-0.4-0.1-0.7-0.1c-0.1,0-0.3,0-0.4-0.1c-0.1,0-0.4-0.1-0.6-0.1s-0.3-0.1-0.4-0.1
	c-0.3-0.1-0.6-0.1-0.7-0.3c-0.1,0-0.3-0.1-0.4-0.1c-0.1,0-0.3-0.1-0.4-0.1c-0.1,0-0.3-0.1-0.4-0.1c-0.3-0.1-0.6-0.3-0.7-0.4
	c0,0,0,0-0.1,0v-5.6V57c0-0.6,0.4-1,1-1h2.7h1.4c0.1,2,1.8,3.5,3.8,3.5c2.1,0,3.6-1.5,3.8-3.5h3.9c0.6,0,1,0.4,1,1L85.6,64.3
	L85.6,64.3z M77.7,55.9c0,0.1,0,0.1,0,0.1c-0.1,0.3-0.4,0.4-0.7,0.4c-0.3,0-0.6-0.1-0.7-0.4v-0.1v-2c0.1,0,0.4,0,0.7,0
	c0.3,0,0.4,0,0.7,0V55.9z M80.6,49c-0.4,0.6-0.8,1-1.4,1.3c-0.1,0.1-0.4,0.3-0.7,0.4c-0.4,0.1-1,0.3-1.5,0.3c-0.8,0-1.7-0.1-2.2-0.6
	v-0.1h-0.1c-0.4-0.3-1-0.7-1.3-1.1c-0.6-0.7-0.8-1.5-0.8-2.4v-3.2c0-2.4,2-4.3,4.5-4.3c2.4,0,4.5,2,4.5,4.3v3.2
	C81.4,47.6,81.2,48.5,80.6,49z M88.9,61.9v-4.8c0-2.2-1.8-3.9-4.1-3.9h-3.9v-0.1c2.2-1.3,3.6-3.6,3.6-6.3v-3.2
	c0-4.1-3.4-7.4-7.6-7.4s-7.6,3.4-7.6,7.4v3.2c0,2.2,1,4.2,2.5,5.6c0.4,0.3,0.7,0.6,1.1,0.8v-0.1h-2.4H69c-2.2,0-4.1,1.8-4.1,3.9v0.1
	v3.8v0.8c-0.1-0.1-0.3-0.3-0.4-0.6c-0.7-0.7-1.3-1.5-1.8-2.4c-1.5-2.4-2.4-5.3-2.4-8.4c0-9,7.4-16.2,16.7-16.2s16.7,7.3,16.7,16.2
	C93.6,54.9,91.8,58.8,88.9,61.9z"/>
</svg>
