<svg width="22" height="19" viewBox="0 0 22 19" fill="none" xmlns="http://www.w3.org/2000/svg">
<path d="M19.7283 4.75492C19.7364 4.95106 19.7444 5.1472 19.7444 5.34333C19.7444 11.3909 15.2091 18.362 6.91175 18.362C4.36617 18.362 1.9978 17.6019 0 16.3025C0.354449 16.3434 0.708898 16.3679 1.07946 16.3679C3.19004 16.3679 5.13951 15.6324 6.67814 14.4065C4.7045 14.3657 3.03698 13.0499 2.46503 11.2275C2.73892 11.2847 3.02087 11.3092 3.31088 11.3092C3.72171 11.3092 4.1245 11.252 4.50311 11.1457C2.44086 10.7289 0.886122 8.87381 0.886122 6.65909C0.886122 6.64275 0.886122 6.61823 0.886122 6.60188C1.49835 6.94512 2.19114 7.14943 2.93226 7.17395C1.72391 6.35671 0.926401 4.95106 0.926401 3.36561C0.926401 2.52386 1.15196 1.7393 1.53863 1.061C3.76199 3.83144 7.08898 5.65388 10.8349 5.84185C10.7543 5.50678 10.714 5.15537 10.714 4.79578C10.714 2.27051 12.736 0.219238 15.2252 0.219238C16.5222 0.219238 17.6983 0.774962 18.52 1.66575C19.5511 1.46144 20.5097 1.07734 21.3878 0.554307C21.0494 1.62489 20.3325 2.52386 19.4061 3.08775C20.3164 2.97334 21.1864 2.72817 22 2.36858C21.3797 3.30023 20.6144 4.1093 19.7283 4.75492Z" fill="#3AD0F9"/>
</svg>
