<svg version="1.1" id="Capa_1" xmlns="http://www.w3.org/2000/svg" xmlns:xlink="http://www.w3.org/1999/xlink" x="0px" y="0px" viewBox="0 0 8 14" style="enable-background:new 0 0 8 14;" xml:space="preserve">
<path fill="#FFFFFF" d="M7.6,7.3L7.6,7.3c0.1,0,0.1-0.2,0.1-0.3c0-0.1,0-0.2-0.1-0.4L1.9,0.9C1.7,0.8,1.6,0.8,1.5,0.8 c-0.1,0-0.2,0-0.3,0.1L0.4,1.6C0.3,1.8,0.3,1.9,0.3,2c0,0.2,0,0.2,0.1,0.3L5.1,7l-4.6,4.7c-0.1,0.1-0.1,0.2-0.1,0.3 c0,0.2,0,0.3,0.1,0.4l0.8,0.8c0.1,0.1,0.2,0.1,0.3,0.1c0.1,0,0.2,0,0.4-0.2L7.6,7.3z"/>
</svg>