<svg width="8" height="13" viewBox="0 0 8 13" fill="none" xmlns="http://www.w3.org/2000/svg">
<path d="M7.30469 6.5625V6.60156C7.38281 6.52344 7.42188 6.40625 7.42188 6.25C7.42188 6.13281 7.38281 6.01562 7.30469 5.89844L1.5625 0.117188C1.44531 0.0390625 1.32812 0 1.21094 0C1.09375 0 0.976562 0.0390625 0.898438 0.117188L0.117188 0.898438C0.0390625 1.01562 0 1.13281 0 1.25C0 1.40625 0.0390625 1.48438 0.117188 1.5625L4.76562 6.25L0.117188 10.9375C0.0390625 11.0156 0 11.1328 0 11.25C0 11.4062 0.0390625 11.5234 0.117188 11.6016L0.898438 12.3828C0.976562 12.4609 1.09375 12.5 1.21094 12.5C1.32812 12.5 1.44531 12.4609 1.5625 12.3438L7.30469 6.5625Z" fill="#7311F2"/>
</svg>
